<svg id="Layer_1" data-name="Layer 1" xmlns="http://www.w3.org/2000/svg" viewBox="0 0 3071.82 720"><defs><style>.cls-1{fill:#00e1cd}.cls-2{fill:#01e1cc}.cls-3{fill:#02e1cc}.cls-4{fill:#03e1cb}.cls-5{fill:#04e2cb}.cls-6{fill:#05e2ca}.cls-7{fill:#06e2ca}.cls-8{fill:#07e2c9}.cls-9{fill:#08e2c9}.cls-10{fill:#09e2c8}.cls-11{fill:#0ae2c8}.cls-12{fill:#0be3c7}.cls-13{fill:#0ce3c6}.cls-14{fill:#0de3c6}.cls-15{fill:#0ee3c5}.cls-16{fill:#0fe3c5}.cls-17{fill:#10e3c4}.cls-18{fill:#11e4c4}.cls-19{fill:#12e4c3}.cls-20{fill:#13e4c3}.cls-21{fill:#14e4c2}.cls-22{fill:#15e4c2}.cls-23{fill:#16e4c1}.cls-24{fill:#17e4c0}.cls-25{fill:#18e5c0}.cls-26{fill:#19e5bf}.cls-27{fill:#1ae5bf}.cls-28{fill:#1be5be}.cls-29{fill:#1ce5be}.cls-30{fill:#1de5bd}.cls-31{fill:#1ee5bd}.cls-32{fill:#1fe6bc}.cls-33{fill:#20e6bc}.cls-34{fill:#21e6bb}.cls-35{fill:#22e6ba}.cls-36{fill:#23e6ba}.cls-37{fill:#24e6b9}.cls-38{fill:#25e6b9}.cls-39{fill:#26e7b8}.cls-40{fill:#27e7b8}.cls-41{fill:#28e7b7}.cls-42{fill:#29e7b7}.cls-43{fill:#2ae7b6}.cls-44{fill:#2be7b6}.cls-45{fill:#2ce8b5}.cls-46{fill:#2de8b4}.cls-47{fill:#2ee8b4}.cls-48{fill:#2fe8b3}.cls-49{fill:#30e8b3}.cls-50{fill:#31e8b2}.cls-51{fill:#32e8b2}.cls-52{fill:#32e9b1}.cls-53{fill:#33e9b1}.cls-54{fill:#34e9b0}.cls-55{fill:#35e9b0}.cls-56{fill:#36e9af}.cls-57{fill:#37e9af}.cls-58{fill:#38e9ae}.cls-59{fill:#39eaad}.cls-60{fill:#3aeaad}.cls-61{fill:#3beaac}.cls-62{fill:#3ceaac}.cls-63{fill:#3deaab}.cls-64{fill:#3eeaab}.cls-65{fill:#3febaa}.cls-66{fill:#40ebaa}.cls-67{fill:#41eba9}.cls-68{fill:#42eba9}.cls-69{fill:#43eba8}.cls-70{fill:#44eba7}.cls-71{fill:#45eba7}.cls-72{fill:#46eca6}.cls-73{fill:#47eca6}.cls-74{fill:#48eca5}.cls-75{fill:#49eca5}.cls-76{fill:#4aeca4}.cls-77{fill:#4beca4}.cls-78{fill:#4ceca3}.cls-79{fill:#4deda3}.cls-80{fill:#4eeda2}.cls-81{fill:#4feda1}.cls-82{fill:#50eda1}.cls-83{fill:#51eda0}.cls-84{fill:#52eda0}.cls-85{fill:#53ed9f}.cls-86{fill:#54ee9f}.cls-87{fill:#55ee9e}.cls-88{fill:#56ee9e}.cls-89{fill:#57ee9d}.cls-90{fill:#58ee9d}.cls-91{fill:#59ee9c}.cls-92{fill:#5aef9b}.cls-93{fill:#5bef9b}.cls-94{fill:#5cef9a}.cls-95{fill:#5def9a}.cls-96{fill:#5eef99}.cls-97{fill:#5fef99}.cls-98{fill:#60ef98}.cls-99{fill:#61f098}.cls-100{fill:#62f097}.cls-101{fill:#63f097}.cls-102{fill:#64f096}.cls-103{fill:#65f095}.cls-104{fill:#66f095}.cls-105{fill:#67f094}.cls-106{fill:#68f094}.cls-107{fill:#69f193}.cls-108{fill:#6af193}.cls-109{fill:#6bf192}.cls-110{fill:#6cf192}.cls-111{fill:#6df191}.cls-112{fill:#6ef190}.cls-113{fill:#6ff190}.cls-114{fill:#70f18f}.cls-115{fill:#71f28f}.cls-116{fill:#72f28e}.cls-117{fill:#73f28e}.cls-118{fill:#74f28d}.cls-119{fill:#75f28d}.cls-120{fill:#76f28c}.cls-121{fill:#77f28b}.cls-122{fill:#78f28b}.cls-123{fill:#79f38a}.cls-124{fill:#7af38a}.cls-125{fill:#7bf389}.cls-126{fill:#7cf389}.cls-127{fill:#7df388}.cls-128{fill:#7ef388}.cls-129{fill:#7ff387}.cls-130{fill:#80f386}.cls-131{fill:#81f386}.cls-132{fill:#82f485}.cls-133{fill:#83f485}.cls-134{fill:#84f484}.cls-135{fill:#85f484}.cls-136{fill:#86f483}.cls-137{fill:#87f483}.cls-138{fill:#88f482}.cls-139{fill:#89f481}.cls-140{fill:#8af581}.cls-141{fill:#8bf580}.cls-142{fill:#8cf580}.cls-143{fill:#8df57f}.cls-144{fill:#8ef57f}.cls-145{fill:#8ff57e}.cls-146{fill:#90f57e}.cls-147{fill:#91f57d}.cls-148{fill:#92f57c}.cls-149{fill:#93f67c}.cls-150{fill:#94f67b}.cls-151{fill:#95f67b}.cls-152{fill:#96f67a}.cls-153{fill:#97f67a}.cls-154{fill:#98f679}.cls-155{fill:#99f679}.cls-156{fill:#9af678}.cls-157{fill:#9bf777}.cls-158{fill:#9cf777}.cls-159{fill:#9df776}.cls-160{fill:#9ef776}.cls-161{fill:#9ff775}.cls-162{fill:#a0f775}.cls-163{fill:#a1f774}.cls-164{fill:#a2f774}.cls-165{fill:#a3f873}.cls-166{fill:#a3f872}.cls-167{fill:#a4f872}.cls-168{fill:#a5f871}.cls-169{fill:#a6f871}.cls-170{fill:#a7f870}.cls-171{fill:#a8f870}.cls-172{fill:#a9f86f}.cls-173{fill:#aaf86f}.cls-174{fill:#abf96e}.cls-175{fill:#acf96d}.cls-176{fill:#adf96d}.cls-177{fill:#aef96c}.cls-178{fill:#aff96c}.cls-179{fill:#b0f96b}.cls-180{fill:#b1f96b}.cls-181{fill:#b2f96a}.cls-182{fill:#b3fa6a}.cls-183{fill:#b4fa69}.cls-184{fill:#b5fa68}.cls-185{fill:#b6fa68}.cls-186{fill:#b7fa67}.cls-187{fill:#b8fa67}.cls-188{fill:#b9fa66}.cls-189{fill:#bafa66}.cls-190{fill:#bbfa65}.cls-191{fill:#bcfb65}.cls-192{fill:#bdfb64}.cls-193{fill:#befb63}.cls-194{fill:#bffb63}.cls-195{fill:#c0fb62}.cls-196{fill:#c1fb62}.cls-197{fill:#c2fb61}.cls-198{fill:#c3fb61}.cls-199{fill:#c4fc60}.cls-200{fill:#c5fc60}.cls-201{fill:#c6fc5f}.cls-202{fill:#c7fc5e}.cls-203{fill:#c8fc5e}.cls-204{fill:#c9fc5d}.cls-205{fill:#cafc5d}.cls-206{fill:#cbfc5c}.cls-207{fill:#ccfc5c}.cls-208{fill:#cdfd5b}.cls-209{fill:#cefd5b}.cls-210{fill:#cffd5a}.cls-211{fill:#d0fd59}.cls-212{fill:#d1fd59}.cls-213{fill:#d2fd58}.cls-214{fill:#d3fd58}.cls-215{fill:#d4fd57}.cls-216{fill:#d5fe57}.cls-217{fill:#d6fe56}.cls-218{fill:#d7fe56}.cls-219{fill:#d8fe55}.cls-220{fill:#d9fe54}.cls-221{fill:#dafe54}.cls-222{fill:#dbfe53}.cls-223{fill:#dcfe53}.cls-224{fill:#ddff52}.cls-225{fill:#deff52}.cls-226{fill:#dfff51}.cls-227{fill:#e0ff51}.cls-228{fill:#e1ff50}.cls-229{fill:#0ae2c7}.cls-230{fill:#13e4c2}.cls-231{fill:#15e4c1}.cls-232{fill:#1ae5be}.cls-233{fill:#1ce5bd}.cls-234{fill:#1ee5bc}.cls-235{fill:#20e6bb}.cls-236{fill:#23e6b9}.cls-237{fill:#25e6b8}.cls-238{fill:#27e7b7}.cls-239{fill:#29e7b6}.cls-240{fill:#2be7b5}.cls-241{fill:#2ce7b4}.cls-242{fill:#2ee8b3}.cls-243{fill:#30e8b2}.cls-244{fill:#32e8b1}.cls-245{fill:#35e9af}.cls-246{fill:#37e9ae}.cls-247{fill:#39e9ad}.cls-248{fill:#3ceaab}.cls-249{fill:#3eeaaa}.cls-250{fill:#3feaaa}.cls-251{fill:#40eaa9}.cls-252{fill:#42eba8}.cls-253{fill:#45eba6}.cls-254{fill:#46eba6}.cls-255{fill:#47eba5}.cls-256{fill:#49eca4}.cls-257{fill:#4beca3}.cls-258{fill:#4deca2}.cls-259{fill:#4eeca1}.cls-260{fill:#50eda0}.cls-261{fill:#52ed9f}.cls-262{fill:#54ed9e}.cls-263{fill:#56ee9d}.cls-264{fill:#57ee9c}.cls-265{fill:#58ee9c}.cls-266{fill:#59ee9b}.cls-267{fill:#5aee9b}.cls-268{fill:#5bee9a}.cls-269{fill:#5def99}.cls-270{fill:#5eef98}.cls-271{fill:#5fef98}.cls-272{fill:#60ef97}.cls-273{fill:#61ef97}.cls-274{fill:#62ef96}.cls-275{fill:#63f096}.cls-276{fill:#64f095}.cls-277{fill:#66f094}.cls-278{fill:#67f093}.cls-279{fill:#68f093}.cls-280{fill:#69f092}.cls-281{fill:#6af192}.cls-282{fill:#6bf191}.cls-283{fill:#6cf191}.cls-284{fill:#6df190}.cls-285{fill:#6ff18f}.cls-286{fill:#70f18e}.cls-287{fill:#71f28e}.cls-288{fill:#72f28d}.cls-289{fill:#73f28d}.cls-290{fill:#74f28c}.cls-291{fill:#75f28c}.cls-292{fill:#76f28b}.cls-293{fill:#77f38b}.cls-294{fill:#78f38a}.cls-295{fill:#79f389}.cls-296{fill:#7af389}.cls-297{fill:#7bf388}.cls-298{fill:#7cf388}.cls-299{fill:#7df387}.cls-300{fill:#7ef487}.cls-301{fill:#7ff486}.cls-302{fill:#80f485}.cls-303{fill:#81f485}.cls-304{fill:#82f484}.cls-305{fill:#83f484}.cls-306{fill:#84f483}.cls-307{fill:#85f583}.cls-308{fill:#86f582}.cls-309{fill:#87f582}.cls-310{fill:#88f581}.cls-311{fill:#89f580}.cls-312{fill:#8af580}.cls-313{fill:#8bf57f}.cls-314{fill:#8cf67f}.cls-315{fill:#8df67e}.cls-316{fill:#8ef67e}.cls-317{fill:#8ff67d}.cls-318{fill:#90f67d}.cls-319{fill:#91f67c}.cls-320{fill:#92f67b}.cls-321{fill:#93f77b}.cls-322{fill:#94f77a}.cls-323{fill:#95f77a}.cls-324{fill:#96f779}.cls-325{fill:#97f779}.cls-326{fill:#98f778}.cls-327{fill:#99f878}.cls-328{fill:#9af877}.cls-329{fill:#9bf876}.cls-330{fill:#9cf876}.cls-331{fill:#9df875}.cls-332{fill:#9ef875}.cls-333{fill:#9ff874}.cls-334{fill:#a0f974}.cls-335{fill:#a1f973}.cls-336{fill:#a2f972}.cls-337{fill:#a3f972}.cls-338{fill:#a4f971}.cls-339{fill:#a5f971}.cls-340{fill:#a6f970}.cls-341{fill:#a7fa70}.cls-342{fill:#a8fa6f}.cls-343{fill:#a9fa6f}.cls-344{fill:#aafa6e}.cls-345{fill:#abfa6d}.cls-346{fill:#acfa6d}.cls-347{fill:#adfa6c}.cls-348{fill:#aefa6c}.cls-349{fill:#affa6b}.cls-350{fill:#b0fb6b}.cls-351{fill:#b1fb6a}.cls-352{fill:#b2fb6a}.cls-353{fill:#b3fb69}.cls-354{fill:#b4fb69}.cls-355{fill:#b5fb68}.cls-356{fill:#b6fb68}.cls-357{fill:#b7fb67}.cls-358{fill:#b8fb67}.cls-359{fill:#b9fb66}.cls-360{fill:#bafb65}.cls-361{fill:#bbfc65}.cls-362{fill:#bcfc64}.cls-363{fill:#bdfc64}.cls-364{fill:#befc63}.cls-365{fill:#bffc63}.cls-366{fill:#c0fc62}.cls-367{fill:#c1fc62}.cls-368{fill:#c2fc61}.cls-369{fill:#c3fc61}.cls-370{fill:#c6fd5f}.cls-371{fill:#c6fd5e}.cls-372{fill:#c7fd5e}.cls-373{fill:#c8fd5d}.cls-374{fill:#c9fd5d}.cls-375{fill:#cafd5c}.cls-376{fill:#cbfd5c}.cls-377{fill:#ccfd5b}.cls-378{fill:#cefd5a}.cls-379{fill:#d1fe59}.cls-380{fill:#d2fe58}.cls-381{fill:#d3fe58}.cls-382{fill:#d4fe57}.cls-383{fill:#d5fe56}.cls-384{fill:#d7fe55}.cls-385{fill:#dcff53}.cls-386{fill:#0be2c7}.cls-387{fill:#11e3c4}.cls-388{fill:#12e3c3}.cls-389{fill:#18e4c0}.cls-390{fill:#19e4bf}.cls-391{fill:#1ae4bf}.cls-392{fill:#1fe5bc}.cls-393{fill:#20e5bb}.cls-394{fill:#21e5bb}.cls-395{fill:#26e6b8}.cls-396{fill:#27e6b7}.cls-397{fill:#28e6b7}.cls-398{fill:#29e6b6}.cls-399{fill:#2ce7b5}.cls-400{fill:#2de7b4}.cls-401{fill:#2ee7b3}.cls-402{fill:#2fe7b3}.cls-403{fill:#30e7b2}.cls-404{fill:#33e8b1}.cls-405{fill:#34e8b0}.cls-406{fill:#35e8b0}.cls-407{fill:#36e8af}.cls-408{fill:#37e8ae}.cls-409{fill:#38e8ae}.cls-410{fill:#3ae9ad}.cls-411{fill:#3be9ac}.cls-412{fill:#3ce9ac}.cls-413{fill:#3de9ab}.cls-414{fill:#3ee9ab}.cls-415{fill:#3fe9aa}.cls-416{fill:#41eaa9}.cls-417{fill:#42eaa8}.cls-418{fill:#43eaa8}.cls-419{fill:#44eaa7}.cls-420{fill:#45eaa7}.cls-421{fill:#46eaa6}.cls-422{fill:#47eaa6}.cls-423{fill:#48eba5}.cls-424{fill:#49eba4}.cls-425{fill:#4aeba4}.cls-426{fill:#4beba3}.cls-427{fill:#4ceba3}.cls-428{fill:#4deba2}.cls-429{fill:#4eeba2}.cls-430{fill:#4feca1}.cls-431{fill:#50eca1}.cls-432{fill:#51eca0}.cls-433{fill:#52ec9f}.cls-434{fill:#53ec9f}.cls-435{fill:#54ec9e}.cls-436{fill:#55ec9e}.cls-437{fill:#56ec9d}.cls-438{fill:#57ed9d}.cls-439{fill:#58ed9c}.cls-440{fill:#59ed9c}.cls-441{fill:#5aed9b}.cls-442{fill:#5bed9a}.cls-443{fill:#5ced9a}.cls-444{fill:#5ded99}.cls-445{fill:#5eee99}.cls-446{fill:#5fee98}.cls-447{fill:#60ee98}.cls-448{fill:#61ee97}.cls-449{fill:#62ee97}.cls-450{fill:#63ee96}.cls-451{fill:#64ee95}.cls-452{fill:#65ee95}.cls-453{fill:#66ef94}.cls-454{fill:#67ef94}.cls-455{fill:#68ef93}.cls-456{fill:#69ef93}.cls-457{fill:#6aef92}.cls-458{fill:#6bef92}.cls-459{fill:#6cef91}.cls-460{fill:#6df090}.cls-461{fill:#6ef090}.cls-462{fill:#6ff08f}.cls-463{fill:#70f08f}.cls-464{fill:#71f08e}.cls-465{fill:#72f08e}.cls-466{fill:#73f08d}.cls-467{fill:#74f08d}.cls-468{fill:#75f18c}.cls-469{fill:#76f18b}.cls-470{fill:#77f18b}.cls-471{fill:#78f18a}.cls-472{fill:#79f18a}.cls-473{fill:#7af189}.cls-474{fill:#7bf189}.cls-475{fill:#7cf288}.cls-476{fill:#7df288}.cls-477{fill:#7ef287}.cls-478{fill:#7ff286}.cls-479{fill:#80f286}.cls-480{fill:#81f285}.cls-481{fill:#82f285}.cls-482{fill:#83f284}.cls-483{fill:#84f384}.cls-484{fill:#85f383}.cls-485{fill:#86f383}.cls-486{fill:#87f382}.cls-487{fill:#88f381}.cls-488{fill:#89f381}.cls-489{fill:#8af380}.cls-490{fill:#8bf480}.cls-491{fill:#8cf47f}.cls-492{fill:#8df47f}.cls-493{fill:#8ef47e}.cls-494{fill:#8ff47e}.cls-495{fill:#90f47d}.cls-496{fill:#91f47c}.cls-497{fill:#92f47c}.cls-498{fill:#93f57b}.cls-499{fill:#94f57b}.cls-500{fill:#95f57a}.cls-501{fill:#96f57a}.cls-502{fill:#97f579}.cls-503{fill:#98f579}.cls-504{fill:#99f578}.cls-505{fill:#9af677}.cls-506{fill:#9bf677}.cls-507{fill:#9cf676}.cls-508{fill:#9df676}.cls-509{fill:#9ef675}.cls-510{fill:#9ff675}.cls-511{fill:#a0f674}.cls-512{fill:#a1f674}.cls-513{fill:#a2f773}.cls-514{fill:#a3f772}.cls-515{fill:#a4f772}.cls-516{fill:#a5f771}.cls-517{fill:#a6f771}.cls-518{fill:#a7f770}.cls-519{fill:#a8f770}.cls-520{fill:#abf86e}.cls-521{fill:#acf86d}.cls-522{fill:#adf86d}.cls-523{fill:#aef86c}.cls-524{fill:#aff86c}.cls-525{fill:#b0f86b}.cls-526{fill:#b3f96a}.cls-527{fill:#b4f969}.cls-528{fill:#b5f968}.cls-529{fill:#b6f968}.cls-530{fill:#b7f967}.cls-531{fill:#bcfa65}.cls-532{fill:#bdfa64}.cls-533{fill:#befa63}.cls-534{fill:#bffa63}.cls-535{fill:#c4fb60}.cls-536{fill:#c5fb60}.cls-537{fill:#c6fb5f}.cls-538{fill:#cdfc5b}.cls-539{fill:#cefc5b}.cls-540{fill:#d5fd57}.cls-541{fill:#ddfe52}</style></defs><title>Ciclic_Logomarca_Positivo_RGB</title><circle class="cls-1" cx="1633.64" cy="160.22" r="72" transform="rotate(-45 1627.934 160.797)"/><circle class="cls-2" cx="1633.61" cy="160.19" r="72" transform="rotate(-45 1627.903 160.77)"/><circle class="cls-3" cx="1633.55" cy="160.12" r="72" transform="rotate(-45 1627.834 160.7)"/><circle class="cls-4" cx="1633.43" cy="160" r="72" transform="rotate(-45 1627.726 160.584)"/><circle class="cls-5" cx="1633.27" cy="159.83" r="72" transform="rotate(-45 1627.573 160.407)"/><circle class="cls-6" cx="1633.07" cy="159.62" r="72" transform="rotate(-45 1627.364 160.194)"/><circle class="cls-7" cx="1632.82" cy="159.36" r="72" transform="rotate(-45 1627.118 159.936)"/><circle class="cls-8" cx="1632.53" cy="159.06" r="72" transform="rotate(-45 1626.82 159.629)"/><circle class="cls-9" cx="1632.19" cy="158.72" r="72" transform="rotate(-45 1626.48 159.29)"/><circle class="cls-10" cx="1631.81" cy="158.33" r="72" transform="rotate(-45 1626.101 158.907)"/><circle class="cls-11" cx="1631.38" cy="157.9" r="72" transform="rotate(-45 1625.672 158.474)"/><circle class="cls-12" cx="1630.91" cy="157.44" r="72" transform="rotate(-45 1625.212 158.015)"/><circle class="cls-13" cx="1630.4" cy="156.93" r="72" transform="rotate(-45 1624.69 157.502)"/><circle class="cls-14" cx="1629.84" cy="156.39" r="72" transform="rotate(-45 1624.135 156.961)"/><circle class="cls-15" cx="1629.24" cy="155.81" r="72" transform="rotate(-45 1623.538 156.388)"/><circle class="cls-16" cx="1628.6" cy="155.19" r="72" transform="rotate(-45 1622.89 155.767)"/><circle class="cls-17" cx="1627.91" cy="154.54" r="72" transform="rotate(-45 1622.2 155.113)"/><circle class="cls-18" cx="1627.18" cy="153.85" r="72" transform="rotate(-45 1621.478 154.432)"/><circle class="cls-19" cx="1626.4" cy="153.14" r="72" transform="rotate(-45 1620.7 153.714)"/><circle class="cls-20" cx="1625.59" cy="152.39" r="72" transform="rotate(-45 1619.88 152.964)"/><circle class="cls-21" cx="1624.73" cy="151.61" r="72" transform="rotate(-45 1619.028 152.187)"/><circle class="cls-22" cx="1623.83" cy="150.8" r="72" transform="rotate(-45 1618.12 151.373)"/><circle class="cls-23" cx="1622.89" cy="149.96" r="72" transform="rotate(-45 1617.182 150.531)"/><circle class="cls-24" cx="1621.9" cy="149.09" r="72" transform="rotate(-45 1616.195 149.67)"/><circle class="cls-25" cx="1620.88" cy="148.19" r="72" transform="rotate(-45 1615.17 148.765)"/><circle class="cls-26" cx="1619.81" cy="147.27" r="72" transform="rotate(-45 1614.104 147.856)"/><circle class="cls-27" cx="1618.7" cy="146.33" r="72" transform="rotate(-45 1613 146.904)"/><circle class="cls-28" cx="1617.55" cy="145.36" r="72" transform="rotate(-45 1611.847 145.931)"/><circle class="cls-29" cx="1616.36" cy="144.37" r="72" transform="rotate(-45 1610.658 144.944)"/><circle class="cls-30" cx="1615.13" cy="143.35" r="72" transform="rotate(-45 1609.425 143.924)"/><circle class="cls-31" cx="1613.85" cy="142.31" r="72" transform="rotate(-45 1608.145 142.885)"/><circle class="cls-32" cx="1612.54" cy="141.26" r="72" transform="rotate(-45 1606.84 141.835)"/><circle class="cls-33" cx="1611.19" cy="140.18" r="72" transform="rotate(-45 1605.475 140.76)"/><circle class="cls-34" cx="1609.79" cy="139.09" r="72" transform="rotate(-45 1604.09 139.664)"/><circle class="cls-35" cx="1608.36" cy="137.98" r="72" transform="rotate(-45 1602.653 138.56)"/><circle class="cls-36" cx="1606.88" cy="136.85" r="72" transform="rotate(-45 1601.184 137.428)"/><circle class="cls-37" cx="1605.37" cy="135.71" r="72" transform="rotate(-45 1599.662 136.288)"/><circle class="cls-38" cx="1603.82" cy="134.55" r="72" transform="rotate(-45 1598.104 135.134)"/><circle class="cls-39" cx="1602.22" cy="133.38" r="72" transform="rotate(-45 1596.515 133.952)"/><circle class="cls-40" cx="1600.59" cy="132.2" r="72" transform="rotate(-45 1594.88 132.78)"/><circle class="cls-41" cx="1598.92" cy="131.01" r="72" transform="rotate(-45 1593.212 131.58)"/><circle class="cls-42" cx="1597.21" cy="129.8" r="72" transform="rotate(-45 1591.504 130.377)"/><circle class="cls-43" cx="1595.46" cy="128.59" r="72" transform="rotate(-45 1589.755 129.172)"/><circle class="cls-44" cx="1593.68" cy="127.37" r="72" transform="rotate(-45 1587.97 127.952)"/><circle class="cls-45" cx="1591.85" cy="126.14" r="72" transform="rotate(-45 1586.148 126.716)"/><circle class="cls-46" cx="1589.99" cy="124.91" r="72" transform="rotate(-45 1584.28 125.49)"/><circle class="cls-47" cx="1588.09" cy="123.67" r="72" transform="rotate(-45 1582.38 124.237)"/><circle class="cls-48" cx="1586.15" cy="122.42" r="72" transform="rotate(-45 1580.447 122.997)"/><circle class="cls-49" cx="1584.17" cy="121.17" r="72" transform="rotate(-45 1578.46 121.75)"/><circle class="cls-50" cx="1582.16" cy="119.92" r="72" transform="rotate(-45 1576.45 120.493)"/><circle class="cls-51" cx="1580.1" cy="118.67" r="72" transform="rotate(-45 1574.393 119.245)"/><circle class="cls-52" cx="1578.02" cy="117.42" r="72" transform="rotate(-45 1572.307 118)"/><circle class="cls-53" cx="1575.89" cy="116.17" r="72" transform="rotate(-45 1570.185 116.738)"/><circle class="cls-54" cx="1573.73" cy="114.91" r="72" transform="rotate(-45 1568.016 115.486)"/><circle class="cls-55" cx="1571.53" cy="113.67" r="72" transform="rotate(-45 1565.818 114.237)"/><circle class="cls-56" cx="1569.29" cy="112.42" r="72" transform="rotate(-45 1563.587 113.001)"/><circle class="cls-57" cx="1567.02" cy="111.18" r="72" transform="rotate(-45 1561.314 111.763)"/><circle class="cls-58" cx="1564.71" cy="109.95" r="72" transform="rotate(-45 1559.011 110.526)"/><circle class="cls-59" cx="1562.37" cy="108.72" r="72" transform="rotate(-45 1556.663 109.299)"/><circle class="cls-60" cx="1559.99" cy="107.5" r="72" transform="rotate(-45 1554.286 108.074)"/><circle class="cls-61" cx="1557.57" cy="106.28" r="72" transform="rotate(-45 1551.862 106.858)"/><circle class="cls-62" cx="1555.12" cy="105.08" r="72" transform="rotate(-45 1549.416 105.66)"/><circle class="cls-63" cx="1552.64" cy="103.89" r="72" transform="rotate(-45 1546.93 104.461)"/><circle class="cls-64" cx="1550.11" cy="102.7" r="72" transform="rotate(-45 1544.408 103.275)"/><circle class="cls-65" cx="1547.56" cy="101.54" r="72" transform="rotate(-45 1541.848 102.116)"/><circle class="cls-66" cx="1544.97" cy="100.38" r="72" transform="rotate(-45 1539.258 100.958)"/><circle class="cls-67" cx="1542.34" cy="99.24" r="72" transform="rotate(-45 1536.635 99.815)"/><circle class="cls-68" cx="1539.68" cy="98.11" r="72" transform="rotate(-45 1533.977 98.686)"/><circle class="cls-69" cx="1536.99" cy="97" r="72" transform="rotate(-45 1531.285 97.57)"/><circle class="cls-70" cx="1534.26" cy="95.91" r="72" transform="rotate(-45 1528.554 96.482)"/><circle class="cls-71" cx="1531.5" cy="94.83" r="72" transform="rotate(-45 1525.79 95.407)"/><circle class="cls-72" cx="1528.7" cy="93.77" r="72" transform="rotate(-45 1523.002 94.352)"/><circle class="cls-73" cx="1525.87" cy="92.74" r="72" transform="rotate(-45 1520.163 93.318)"/><circle class="cls-74" cx="1523.01" cy="91.72" r="72" transform="rotate(-45 1517.303 92.303)"/><circle class="cls-75" cx="1520.11" cy="90.73" r="72" transform="rotate(-45 1514.408 91.302)"/><circle class="cls-76" cx="1517.19" cy="89.76" r="72" transform="rotate(-45 1511.482 90.344)"/><circle class="cls-77" cx="1514.22" cy="88.81" r="72" transform="rotate(-45 1508.526 89.388)"/><circle class="cls-78" cx="1511.23" cy="87.89" r="72" transform="rotate(-45 1505.526 88.47)"/><circle class="cls-79" cx="1508.2" cy="87" r="72" transform="rotate(-45 1502.504 87.573)"/><circle class="cls-80" cx="1505.14" cy="86.13" r="72" transform="rotate(-45 1499.438 86.713)"/><circle class="cls-81" cx="1502.05" cy="85.29" r="72" transform="rotate(-45 1496.35 85.872)"/><circle class="cls-82" cx="1498.93" cy="84.48" r="72" transform="rotate(-45 1493.222 85.057)"/><circle class="cls-83" cx="1495.77" cy="83.7" r="72" transform="rotate(-45 1490.067 84.274)"/><circle class="cls-84" cx="1492.58" cy="82.95" r="72" transform="rotate(-45 1486.88 83.534)"/><circle class="cls-85" cx="1489.37" cy="82.23" r="72" transform="rotate(-45 1483.66 82.808)"/><circle class="cls-86" cx="1486.12" cy="81.55" r="72" transform="rotate(-45 1480.407 82.125)"/><circle class="cls-87" cx="1482.83" cy="80.9" r="72" transform="rotate(-45 1477.128 81.474)"/><circle class="cls-88" cx="1479.52" cy="80.28" r="72" transform="rotate(-45 1473.816 80.866)"/><circle class="cls-89" cx="1476.18" cy="79.7" r="72" transform="rotate(-45 1470.47 80.272)"/><circle class="cls-90" cx="1472.8" cy="79.16" r="72" transform="rotate(-45 1467.099 79.738)"/><circle class="cls-91" cx="1469.4" cy="78.65" r="72" transform="rotate(-45 1463.688 79.23)"/><circle class="cls-92" cx="1465.97" cy="78.19" r="72" transform="rotate(-45 1460.263 78.76)"/><circle class="cls-93" cx="1462.5" cy="77.76" r="72" transform="rotate(-45 1456.789 78.338)"/><circle class="cls-94" cx="1459.01" cy="77.37" r="72" transform="rotate(-45 1453.3 77.954)"/><circle class="cls-95" cx="1455.48" cy="77.03" r="72" transform="rotate(-45 1449.778 77.612)"/><circle class="cls-96" cx="1451.93" cy="76.73" r="72" transform="rotate(-45 1446.23 77.302)"/><circle class="cls-97" cx="1448.34" cy="76.47" r="72" transform="rotate(-45 1442.644 77.047)"/><circle class="cls-98" cx="1444.73" cy="76.26" r="72" transform="rotate(-45 1439.026 76.836)"/><circle class="cls-99" cx="1441.09" cy="76.09" r="72" transform="rotate(-45 1435.377 76.667)"/><circle class="cls-100" cx="1437.42" cy="75.97" r="72" transform="rotate(-45 1431.707 76.548)"/><circle class="cls-101" cx="1433.72" cy="75.89" r="72" transform="rotate(-45 1428.005 76.47)"/><circle class="cls-102" cx="1429.99" cy="75.87" r="72" transform="rotate(-45 1424.284 76.442)"/><circle class="cls-103" cx="1426.56" cy="75.89" r="71.83" transform="rotate(-45.32 1420.958 76.418)"/><circle class="cls-104" cx="1423.13" cy="75.96" r="71.67" transform="rotate(-45.65 1417.384 76.532)"/><circle class="cls-105" cx="1419.71" cy="76.07" r="71.51" transform="rotate(-45.97 1414.147 76.575)"/><circle class="cls-106" cx="1416.28" cy="76.22" r="71.35" transform="rotate(-46.3 1410.657 76.738)"/><circle class="cls-107" cx="1412.86" cy="76.42" r="71.19" transform="rotate(-46.63 1407.218 76.942)"/><circle class="cls-108" cx="1409.43" cy="76.66" r="71.04" transform="rotate(-46.96 1403.82 77.168)"/><circle class="cls-109" cx="1406.02" cy="76.94" r="70.88" transform="rotate(-47.29 1400.473 77.422)"/><circle class="cls-110" cx="1402.6" cy="77.27" r="70.73" transform="rotate(-47.62 1397.15 77.703)"/><circle class="cls-111" cx="1399.19" cy="77.64" r="70.59" transform="rotate(-47.95 1393.89 78.016)"/><circle class="cls-112" cx="1395.78" cy="78.05" r="70.44" transform="rotate(-48.29 1390.377 78.45)"/><circle class="cls-113" cx="1392.37" cy="78.5" r="70.3" transform="rotate(-48.62 1387.189 78.814)"/><circle class="cls-114" cx="1388.97" cy="79" r="70.16" transform="rotate(-48.96 1383.77 79.319)"/><circle class="cls-115" cx="1385.58" cy="79.54" r="70.02" transform="rotate(-49.3 1380.387 79.853)"/><circle class="cls-116" cx="1382.19" cy="80.12" r="69.89" transform="rotate(-49.5 1381.81 78.44)"/><circle class="cls-117" cx="1378.81" cy="80.74" r="69.75" transform="rotate(-49.98 1373.746 80.987)"/><circle class="cls-118" cx="1375.43" cy="81.4" r="69.62" transform="rotate(-50.33 1370.218 81.702)"/><circle class="cls-119" cx="1372.06" cy="82.1" r="69.5" transform="rotate(-50.67 1366.998 82.344)"/><circle class="cls-120" cx="1368.7" cy="82.85" r="69.37" transform="rotate(-51.02 1363.567 83.11)"/><circle class="cls-121" cx="1365.34" cy="83.63" r="69.25" transform="rotate(-51.37 1360.167 83.91)"/><circle class="cls-122" cx="1362" cy="84.46" r="69.13" transform="rotate(-51.71 1357.053 84.631)"/><circle class="cls-123" cx="1358.66" cy="85.33" r="69.01" transform="rotate(-52.06 1353.733 85.5)"/><circle class="cls-124" cx="1355.33" cy="86.23" r="68.89" transform="rotate(-52.4 1353.636 88.225)"/><circle class="cls-125" cx="1352.01" cy="87.18" r="68.78" transform="rotate(-52.77 1346.952 87.394)"/><circle class="cls-126" cx="1348.7" cy="88.17" r="68.67" transform="rotate(-53.12 1343.75 88.337)"/><circle class="cls-127" cx="1345.4" cy="89.19" r="68.56" transform="rotate(-53.47 1340.578 89.301)"/><circle class="cls-128" cx="1342.11" cy="90.26" r="68.46" transform="rotate(-53.83 1337.202 90.401)"/><circle class="cls-129" cx="1338.84" cy="91.37" r="68.36" transform="rotate(-54.18 1334.1 91.434)"/><circle class="cls-130" cx="1335.57" cy="92.51" r="68.26" transform="rotate(-54.54 1330.8 92.59)"/><circle class="cls-131" cx="1332.32" cy="93.69" r="68.16" transform="rotate(-54.9 1327.542 93.77)"/><circle class="cls-132" cx="1329.08" cy="94.92" r="68.07" transform="rotate(-55.26 1324.304 94.987)"/><circle class="cls-133" cx="1325.85" cy="96.18" r="67.98" transform="rotate(-55.62 1321.114 96.229)"/><circle class="cls-134" cx="1322.64" cy="97.48" r="67.89" transform="rotate(-55.98 1317.957 97.502)"/><circle class="cls-135" cx="1319.43" cy="98.81" r="67.8" transform="rotate(-56.34 1314.832 98.804)"/><circle class="cls-136" cx="1316.25" cy="100.19" r="67.72" transform="rotate(-56.7 1311.739 100.136)"/><circle class="cls-137" cx="1313.08" cy="101.6" r="67.64" transform="rotate(-57.07 1308.457 101.594)"/><circle class="cls-138" cx="1309.92" cy="103.05" r="67.56" transform="rotate(-57.43 1305.434 102.987)"/><circle class="cls-139" cx="1306.78" cy="104.54" r="67.48" transform="rotate(-57.8 1302.225 104.504)"/><circle class="cls-140" cx="1303.66" cy="106.07" r="67.41" transform="rotate(-58.17 1299.048 106.047)"/><circle class="cls-141" cx="1300.55" cy="107.63" r="67.34" transform="rotate(-58.53 1296.121 107.524)"/><circle class="cls-142" cx="1297.46" cy="109.23" r="67.28" transform="rotate(-58.9 1293.006 109.131)"/><circle class="cls-143" cx="1294.38" cy="110.86" r="67.21" transform="rotate(-59.27 1289.934 110.76)"/><circle class="cls-144" cx="1291.32" cy="112.54" r="67.15" transform="rotate(-59.64 1286.89 112.433)"/><circle class="cls-145" cx="1288.29" cy="114.24" r="67.09" transform="rotate(-60.01 1283.877 114.122)"/><circle class="cls-146" cx="1285.27" cy="115.99" r="67.04" transform="rotate(-60.38 1280.894 115.847)"/><circle class="cls-147" cx="1282.26" cy="117.77" r="66.98" transform="rotate(-60.75 1277.94 117.607)"/><circle class="cls-148" cx="1279.28" cy="119.59" r="66.93" transform="rotate(-61.12 1275.02 119.394)"/><circle class="cls-149" cx="1276.32" cy="121.44" r="66.89" transform="rotate(-61.49 1272.12 121.21)"/><circle class="cls-150" cx="1273.38" cy="123.32" r="66.84" transform="rotate(-61.87 1269.064 123.15)"/><circle class="cls-151" cx="1270.46" cy="125.25" r="66.8" transform="rotate(-62.24 1266.23 125.03)"/><circle class="cls-152" cx="1267.56" cy="127.2" r="66.76" transform="rotate(-62.61 1263.435 126.939)"/><circle class="cls-153" cx="1264.68" cy="129.2" r="66.73" transform="rotate(-62.99 1260.465 128.967)"/><circle class="cls-154" cx="1261.83" cy="131.22" r="66.69" transform="rotate(-63.36 1257.72 130.94)"/><circle class="cls-155" cx="1258.99" cy="133.28" r="66.66" transform="rotate(-63.74 1254.816 133.039)"/><circle class="cls-156" cx="1256.18" cy="135.38" r="66.64" transform="rotate(-64.11 1252.124 135.078)"/><circle class="cls-157" cx="1253.4" cy="137.51" r="66.61" transform="rotate(-64.49 1249.273 137.229)"/><circle class="cls-158" cx="1250.63" cy="139.67" r="66.59" transform="rotate(-64.86 1246.644 139.329)"/><circle class="cls-159" cx="1247.89" cy="141.87" r="66.57" transform="rotate(-65.24 1243.848 141.555)"/><circle class="cls-160" cx="1245.18" cy="144.1" r="66.56" transform="rotate(-65.62 1241.086 143.806)"/><circle class="cls-161" cx="1242.49" cy="146.36" r="66.54" transform="rotate(-65.99 1238.531 146)"/><circle class="cls-162" cx="1239.83" cy="148.66" r="66.53" transform="rotate(-66.37 1235.836 148.313)"/><circle class="cls-163" cx="1237.19" cy="150.99" r="66.53" transform="rotate(-66.75 1233.155 150.66)"/><circle class="cls-164" cx="1234.58" cy="153.35" r="66.52" transform="rotate(-67.12 1230.683 152.955)"/><circle class="cls-165" cx="1231.99" cy="155.74" r="66.52" transform="rotate(-67.5 1228.06 155.368)"/><circle class="cls-166" cx="1229.43" cy="158.17" r="66.52" transform="rotate(-67.88 1225.46 157.811)"/><circle class="cls-167" cx="1226.9" cy="160.63" r="66.53" transform="rotate(-68.25 1223.07 160.207)"/><circle class="cls-168" cx="1224.4" cy="163.12" r="66.53" transform="rotate(-68.63 1220.527 162.707)"/><circle class="cls-169" cx="1221.93" cy="165.64" r="66.54" transform="rotate(-69.01 1218.016 165.252)"/><circle class="cls-170" cx="1219.48" cy="168.2" r="66.56" transform="rotate(-69.38 1215.7 167.746)"/><circle class="cls-171" cx="1217.07" cy="170.78" r="66.57" transform="rotate(-69.76 1213.242 170.345)"/><circle class="cls-172" cx="1214.68" cy="173.4" r="66.59" transform="rotate(-70.14 1210.811 172.99)"/><circle class="cls-173" cx="1212.33" cy="176.05" r="66.61" transform="matrix(.33 -.94 .94 .33 639.82 1256.31)"/><circle class="cls-174" cx="1210" cy="178.73" r="66.64" transform="rotate(-70.89 1206.188 178.278)"/><circle class="cls-175" cx="1207.71" cy="181.43" r="66.66" transform="rotate(-71.26 1204 180.939)"/><circle class="cls-176" cx="1205.45" cy="184.17" r="66.69" transform="rotate(-71.64 1201.673 183.714)"/><circle class="cls-177" cx="1203.22" cy="186.94" r="66.73" transform="rotate(-72.01 1199.533 186.43)"/><circle class="cls-178" cx="1201.02" cy="189.74" r="66.76" transform="rotate(-72.39 1197.267 189.27)"/><circle class="cls-179" cx="1198.86" cy="192.57" r="66.8" transform="rotate(-72.76 1195.18 192.058)"/><circle class="cls-180" cx="1196.72" cy="195.43" r="66.84" transform="rotate(-73.13 1193.119 194.88)"/><circle class="cls-181" cx="1194.63" cy="198.32" r="66.89" transform="rotate(-73.51 1190.925 197.82)"/><circle class="cls-182" cx="1192.56" cy="201.24" r="66.93" transform="rotate(-73.88 1188.911 200.712)"/><circle class="cls-183" cx="1190.53" cy="204.19" r="66.98" transform="rotate(-74.25 1186.932 203.636)"/><circle class="cls-184" cx="1188.54" cy="207.16" r="67.04" transform="rotate(-74.62 1184.968 206.59)"/><circle class="cls-185" cx="1186.58" cy="210.17" r="67.09" transform="rotate(-75 1177.97 208.735)"/><circle class="cls-186" cx="1184.66" cy="213.2" r="67.15" transform="rotate(-75.36 1181.133 212.61)"/><circle class="cls-187" cx="1182.77" cy="216.26" r="67.21" transform="rotate(-75.73 1179.253 215.661)"/><circle class="cls-188" cx="1180.92" cy="219.35" r="67.28" transform="rotate(-76.1 1177.398 218.75)"/><circle class="cls-189" cx="1179.11" cy="222.47" r="67.34" transform="rotate(-76.47 1175.574 221.881)"/><circle class="cls-190" cx="1177.33" cy="225.62" r="67.41" transform="rotate(-76.83 1173.92 224.96)"/><circle class="cls-191" cx="1175.6" cy="228.79" r="67.48" transform="rotate(-77.2 1172.141 228.155)"/><circle class="cls-192" cx="1173.9" cy="231.99" r="67.56" transform="rotate(-77.57 1170.4 231.378)"/><circle class="cls-193" cx="1172.24" cy="235.22" r="67.64" transform="rotate(-77.93 1168.826 234.562)"/><circle class="cls-194" cx="1170.62" cy="238.47" r="67.72" transform="rotate(-78.3 1167.13 237.853)"/><circle class="cls-195" cx="1169.04" cy="241.75" r="67.8" transform="rotate(-78.66 1165.61 241.103)"/><circle class="cls-196" cx="1167.5" cy="245.06" r="67.89" transform="rotate(-79.02 1164.12 244.388)"/><circle class="cls-197" cx="1166" cy="248.4" r="67.98" transform="matrix(.18 -.98 .98 .18 704.91 1344.79)"/><circle class="cls-198" cx="1164.54" cy="251.76" r="68.07" transform="rotate(-79.74 1161.205 251.061)"/><circle class="cls-199" cx="1163.12" cy="255.15" r="68.16" transform="rotate(-80.1 1159.795 254.441)"/><circle class="cls-200" cx="1161.74" cy="258.56" r="68.26" transform="rotate(-80.46 1158.406 257.862)"/><circle class="cls-201" cx="1160.41" cy="262" r="68.36" transform="rotate(-80.82 1157.046 261.312)"/><circle class="cls-202" cx="1159.12" cy="265.46" r="68.46" transform="rotate(-81.17 1155.863 264.722)"/><circle class="cls-203" cx="1157.87" cy="268.95" r="68.56" transform="rotate(-81.53 1154.562 268.24)"/><circle class="cls-204" cx="1156.67" cy="272.47" r="68.67" transform="rotate(-81.88 1153.423 271.72)"/><circle class="cls-205" cx="1155.51" cy="276.01" r="68.78" transform="rotate(-82.23 1152.321 275.228)"/><circle class="cls-206" cx="1154.39" cy="279.57" r="68.89" transform="rotate(-82.59 1151.107 278.849)"/><circle class="cls-207" cx="1153.32" cy="283.16" r="69.01" transform="rotate(-82.94 1150.056 282.426)"/><circle class="cls-208" cx="1152.3" cy="286.77" r="69.13" transform="rotate(-83.29 1149.04 286.031)"/><circle class="cls-209" cx="1151.32" cy="290.41" r="69.25" transform="rotate(-83.63 1148.186 289.604)"/><circle class="cls-210" cx="1150.39" cy="294.07" r="69.37" transform="rotate(-83.98 1147.221 293.283)"/><circle class="cls-211" cx="1149.5" cy="297.76" r="69.5" transform="rotate(-84.33 1146.29 296.99)"/><circle class="cls-212" cx="1148.66" cy="301.47" r="69.62" transform="rotate(-84.67 1145.531 300.66)"/><circle class="cls-213" cx="1147.87" cy="305.2" r="69.75" transform="rotate(-85.02 1144.657 304.43)"/><circle class="cls-214" cx="1147.13" cy="308.95" r="69.89" transform="rotate(-85.36 1143.954 308.164)"/><circle class="cls-215" cx="1146.43" cy="312.73" r="70.02" transform="rotate(-85.7 1143.28 311.937)"/><circle class="cls-216" cx="1145.78" cy="316.53" r="70.16" transform="rotate(-86 1142.243 313.546)"/><circle class="cls-217" cx="1145.19" cy="320.36" r="70.3" transform="rotate(-86.38 1142.022 319.564)"/><circle class="cls-218" cx="1144.64" cy="324.2" r="70.44" transform="rotate(-86.71 1141.576 323.364)"/><circle class="cls-219" cx="1144.14" cy="328.07" r="70.59" transform="rotate(-87.05 1141.026 327.258)"/><circle class="cls-220" cx="1143.7" cy="331.96" r="70.73" transform="rotate(-87.38 1140.641 331.117)"/><circle class="cls-221" cx="1143.3" cy="335.88" r="70.88" transform="rotate(-87.71 1140.291 335.006)"/><circle class="cls-222" cx="1142.95" cy="339.81" r="71.04" transform="rotate(-88.3 1136.598 340.25)"/><circle class="cls-223" cx="1142.66" cy="343.77" r="71.19" transform="rotate(-88.37 1139.687 342.877)"/><circle class="cls-224" cx="1142.42" cy="347.75" r="71.35" transform="rotate(-88.7 1139.432 346.86)"/><circle class="cls-225" cx="1142.23" cy="351.74" r="71.51" transform="rotate(-89.03 1139.214 350.879)"/><circle class="cls-226" cx="1142.1" cy="355.76" r="71.67" transform="rotate(-89.35 1139.155 354.854)"/><circle class="cls-227" cx="1142.02" cy="359.8" r="71.83" transform="rotate(-89.68 1139.01 358.933)"/><circle class="cls-228" cx="1139.91" cy="360" r="72"/><path class="cls-1" d="M1684.55 516.6a72 72 0 0 0-101.82 0S1529 579.87 1430 579.87c-119.29 0-216-96.71-216-216a72 72 0 1 0-144 0c0 198.82 161.18 360 360 360 160.88 0 254.56-105.44 254.56-105.44a72 72 0 0 0-.01-101.83z" transform="translate(-2.08 -3.87)"/><circle class="cls-1" cx="3001.9" cy="160.22" r="72" transform="rotate(-45 2996.202 160.792)"/><circle class="cls-2" cx="3001.89" cy="160.21" r="72" transform="rotate(-45 2996.19 160.787)"/><circle class="cls-3" cx="3001.87" cy="160.18" r="72" transform="rotate(-45 2996.16 160.76)"/><circle class="cls-4" cx="3001.83" cy="160.14" r="72" transform="rotate(-45 2996.12 160.716)"/><circle class="cls-5" cx="3001.77" cy="160.08" r="72" transform="rotate(-45 2996.075 160.655)"/><circle class="cls-6" cx="3001.7" cy="160" r="72" transform="rotate(-45 2995.994 160.579)"/><circle class="cls-7" cx="3001.61" cy="159.91" r="72" transform="rotate(-45 2995.905 160.485)"/><circle class="cls-8" cx="3001.51" cy="159.8" r="72" transform="rotate(-45 2995.81 160.375)"/><circle class="cls-9" cx="3001.39" cy="159.68" r="72" transform="rotate(-45 2995.678 160.25)"/><circle class="cls-10" cx="3001.25" cy="159.53" r="72" transform="rotate(-45 2995.55 160.112)"/><circle class="cls-229" cx="3001.1" cy="159.38" r="72" transform="rotate(-45 2995.393 159.948)"/><circle class="cls-12" cx="3000.93" cy="159.21" r="72" transform="rotate(-45 2995.222 159.778)"/><circle class="cls-13" cx="3000.75" cy="159.02" r="72" transform="rotate(-45 2995.045 159.592)"/><circle class="cls-14" cx="3000.55" cy="158.81" r="72" transform="rotate(-45 2994.844 159.395)"/><circle class="cls-15" cx="3000.33" cy="158.6" r="72" transform="rotate(-45 2994.623 159.177)"/><circle class="cls-16" cx="3000.1" cy="158.36" r="72" transform="rotate(-45 2994.395 158.94)"/><circle class="cls-17" cx="2999.86" cy="158.12" r="72" transform="rotate(-45 2994.156 158.7)"/><circle class="cls-18" cx="2999.59" cy="157.86" r="72" transform="rotate(-45 2993.885 158.432)"/><circle class="cls-19" cx="2999.32" cy="157.58" r="72" transform="rotate(-45 2993.614 158.165)"/><circle class="cls-230" cx="2999.02" cy="157.29" r="72" transform="rotate(-45 2993.312 157.87)"/><circle class="cls-21" cx="2998.72" cy="156.99" r="72" transform="rotate(-45 2993.01 157.575)"/><circle class="cls-231" cx="2998.39" cy="156.68" r="72" transform="rotate(-45 2992.688 157.258)"/><circle class="cls-23" cx="2998.05" cy="156.35" r="72" transform="rotate(-45 2992.348 156.919)"/><circle class="cls-24" cx="2997.7" cy="156.01" r="72" transform="rotate(-45 2991.99 156.587)"/><circle class="cls-25" cx="2997.33" cy="155.65" r="72" transform="rotate(-45 2991.619 156.22)"/><circle class="cls-26" cx="2996.94" cy="155.28" r="72" transform="rotate(-45 2991.23 155.862)"/><circle class="cls-232" cx="2996.54" cy="154.9" r="72" transform="rotate(-45 2990.834 155.486)"/><circle class="cls-28" cx="2996.13" cy="154.51" r="72" transform="rotate(-45 2990.42 155.088)"/><circle class="cls-233" cx="2995.69" cy="154.11" r="72" transform="rotate(-45 2989.992 154.685)"/><circle class="cls-30" cx="2995.25" cy="153.69" r="72" transform="rotate(-45 2989.541 154.271)"/><circle class="cls-234" cx="2994.79" cy="153.27" r="72" transform="rotate(-45 2989.083 153.841)"/><circle class="cls-32" cx="2994.31" cy="152.83" r="72" transform="rotate(-45 2988.6 153.401)"/><circle class="cls-235" cx="2993.82" cy="152.38" r="72" transform="rotate(-45 2988.106 152.956)"/><circle class="cls-34" cx="2993.31" cy="151.92" r="72" transform="rotate(-45 2987.605 152.494)"/><circle class="cls-35" cx="2992.79" cy="151.45" r="72" transform="rotate(-45 2987.091 152.026)"/><circle class="cls-236" cx="2992.26" cy="150.97" r="72" transform="rotate(-45 2986.542 151.544)"/><circle class="cls-37" cx="2991.7" cy="150.47" r="72" transform="rotate(-45 2985.997 151.05)"/><circle class="cls-237" cx="2991.14" cy="149.97" r="72" transform="rotate(-45 2985.428 150.545)"/><circle class="cls-39" cx="2990.56" cy="149.46" r="72" transform="rotate(-45 2984.847 150.036)"/><circle class="cls-238" cx="2989.96" cy="148.94" r="72" transform="rotate(-45 2984.259 149.51)"/><circle class="cls-41" cx="2989.35" cy="148.41" r="72" transform="rotate(-45 2983.642 148.985)"/><circle class="cls-239" cx="2988.73" cy="147.87" r="72" transform="rotate(-45 2983.017 148.444)"/><circle class="cls-43" cx="2988.09" cy="147.32" r="72" transform="rotate(-45 2982.381 147.897)"/><circle class="cls-240" cx="2987.43" cy="146.76" r="72" transform="rotate(-45 2981.72 147.34)"/><circle class="cls-241" cx="2986.76" cy="146.19" r="72" transform="rotate(-45 2981.053 146.767)"/><circle class="cls-46" cx="2986.08" cy="145.62" r="72" transform="rotate(-45 2980.373 146.189)"/><circle class="cls-242" cx="2985.38" cy="145.03" r="72" transform="rotate(-45 2979.677 145.617)"/><circle class="cls-48" cx="2984.67" cy="144.44" r="72" transform="rotate(-45 2978.96 145.024)"/><circle class="cls-243" cx="2983.94" cy="143.84" r="72" transform="rotate(-45 2978.233 144.425)"/><circle class="cls-50" cx="2983.2" cy="143.24" r="72" transform="rotate(-45 2977.498 143.81)"/><circle class="cls-244" cx="2982.44" cy="142.62" r="72" transform="rotate(-45 2976.734 143.196)"/><circle class="cls-53" cx="2981.67" cy="142" r="72" transform="rotate(-45 2975.97 142.583)"/><circle class="cls-54" cx="2980.89" cy="141.37" r="72" transform="rotate(-45 2975.187 141.947)"/><circle class="cls-245" cx="2980.09" cy="140.74" r="72" transform="rotate(-45 2974.374 141.314)"/><circle class="cls-56" cx="2979.27" cy="140.09" r="72" transform="rotate(-45 2973.567 140.668)"/><circle class="cls-246" cx="2978.45" cy="139.44" r="72" transform="rotate(-45 2972.747 140.018)"/><circle class="cls-58" cx="2977.61" cy="138.79" r="72" transform="rotate(-45 2971.899 139.37)"/><circle class="cls-247" cx="2976.75" cy="138.13" r="72" transform="rotate(-45 2971.043 138.704)"/><circle class="cls-60" cx="2975.88" cy="137.46" r="72" transform="rotate(-45 2970.17 138.045)"/><circle class="cls-61" cx="2975" cy="136.79" r="72" transform="rotate(-45 2969.29 137.37)"/><circle class="cls-248" cx="2974.1" cy="136.11" r="72" transform="rotate(-45 2968.398 136.69)"/><circle class="cls-63" cx="2973.19" cy="135.43" r="72" transform="rotate(-45 2967.477 136.01)"/><circle class="cls-249" cx="2972.26" cy="134.74" r="72" transform="rotate(-45 2966.561 135.32)"/><circle class="cls-250" cx="2971.32" cy="134.05" r="72" transform="rotate(-45 2965.616 134.632)"/><circle class="cls-251" cx="2970.37" cy="133.36" r="72" transform="rotate(-45 2964.659 133.938)"/><circle class="cls-67" cx="2969.4" cy="132.65" r="72" transform="rotate(-45 2963.695 133.227)"/><circle class="cls-252" cx="2968.42" cy="131.95" r="72" transform="rotate(-45 2962.713 132.524)"/><circle class="cls-69" cx="2967.42" cy="131.24" r="72" transform="rotate(-45 2961.72 131.816)"/><circle class="cls-70" cx="2966.41" cy="130.53" r="72" transform="rotate(-45 2960.714 131.102)"/><circle class="cls-253" cx="2965.39" cy="129.81" r="72" transform="rotate(-45 2959.68 130.39)"/><circle class="cls-254" cx="2964.35" cy="129.09" r="72" transform="rotate(-45 2958.65 129.667)"/><circle class="cls-255" cx="2963.3" cy="128.37" r="72" transform="rotate(-45 2957.603 128.95)"/><circle class="cls-74" cx="2962.24" cy="127.64" r="72" transform="rotate(-45 2956.532 128.224)"/><circle class="cls-256" cx="2961.16" cy="126.92" r="72" transform="rotate(-45 2955.461 127.498)"/><circle class="cls-76" cx="2960.07" cy="126.19" r="72" transform="rotate(-45 2954.366 126.761)"/><circle class="cls-257" cx="2958.97" cy="125.45" r="72" transform="rotate(-45 2953.266 126.037)"/><circle class="cls-78" cx="2957.85" cy="124.72" r="72" transform="rotate(-45 2952.147 125.29)"/><circle class="cls-258" cx="2956.72" cy="123.98" r="72" transform="rotate(-45 2951.023 124.556)"/><circle class="cls-259" cx="2955.58" cy="123.24" r="72" transform="rotate(-45 2949.87 123.824)"/><circle class="cls-81" cx="2954.42" cy="122.5" r="72" transform="rotate(-45 2948.71 123.075)"/><circle class="cls-260" cx="2953.25" cy="121.76" r="72" transform="rotate(-45 2947.544 122.337)"/><circle class="cls-83" cx="2952.06" cy="121.02" r="72" transform="rotate(-45 2946.354 121.59)"/><circle class="cls-261" cx="2950.87" cy="120.28" r="72" transform="rotate(-45 2945.16 120.855)"/><circle class="cls-85" cx="2949.66" cy="119.53" r="72" transform="rotate(-45 2943.953 120.115)"/><circle class="cls-262" cx="2948.43" cy="118.79" r="72" transform="rotate(-45 2942.722 119.364)"/><circle class="cls-87" cx="2947.2" cy="118.04" r="72" transform="rotate(-45 2941.487 118.626)"/><circle class="cls-263" cx="2945.95" cy="117.3" r="72" transform="rotate(-45 2940.244 117.871)"/><circle class="cls-264" cx="2944.68" cy="116.56" r="72" transform="rotate(-45 2938.979 117.135)"/><circle class="cls-265" cx="2943.41" cy="115.81" r="72" transform="rotate(-45 2937.702 116.394)"/><circle class="cls-266" cx="2942.12" cy="115.07" r="72" transform="rotate(-45 2936.413 115.648)"/><circle class="cls-267" cx="2940.82" cy="114.33" r="72" transform="rotate(-45 2935.107 114.909)"/><circle class="cls-268" cx="2939.5" cy="113.59" r="72" transform="rotate(-45 2933.789 114.165)"/><circle class="cls-94" cx="2938.17" cy="112.85" r="72" transform="rotate(-45 2932.47 113.42)"/><circle class="cls-269" cx="2936.83" cy="112.11" r="72" transform="rotate(-45 2931.135 112.684)"/><circle class="cls-270" cx="2935.48" cy="111.37" r="72" transform="rotate(-45 2929.77 111.95)"/><circle class="cls-271" cx="2934.12" cy="110.64" r="72" transform="rotate(-45 2928.406 111.214)"/><circle class="cls-272" cx="2932.74" cy="109.9" r="72" transform="rotate(-45 2927.03 110.474)"/><circle class="cls-273" cx="2931.35" cy="109.17" r="72" transform="rotate(-45 2925.636 109.742)"/><circle class="cls-274" cx="2929.94" cy="108.44" r="72" transform="rotate(-45 2924.238 109.021)"/><circle class="cls-275" cx="2928.52" cy="107.72" r="72" transform="rotate(-45 2922.815 108.29)"/><circle class="cls-276" cx="2927.1" cy="107" r="72" transform="rotate(-45 2921.388 107.572)"/><circle class="cls-103" cx="2925.65" cy="106.28" r="72" transform="rotate(-45 2919.948 106.848)"/><circle class="cls-277" cx="2924.2" cy="105.56" r="72" transform="rotate(-45 2918.491 106.131)"/><circle class="cls-278" cx="2922.73" cy="104.85" r="72" transform="rotate(-45 2917.03 105.427)"/><circle class="cls-279" cx="2921.25" cy="104.14" r="72" transform="rotate(-45 2915.543 104.712)"/><circle class="cls-280" cx="2919.76" cy="103.43" r="72" transform="rotate(-45 2914.052 104.01)"/><circle class="cls-281" cx="2918.26" cy="102.73" r="72" transform="rotate(-45 2912.55 103.303)"/><circle class="cls-282" cx="2916.74" cy="102.04" r="72" transform="rotate(-45 2911.036 102.62)"/><circle class="cls-283" cx="2915.21" cy="101.34" r="72" transform="rotate(-45 2909.504 101.914)"/><circle class="cls-284" cx="2913.67" cy="100.66" r="72" transform="rotate(-45 2907.962 101.233)"/><circle class="cls-112" cx="2912.12" cy="99.97" r="72" transform="rotate(-45 2906.42 100.552)"/><circle class="cls-285" cx="2910.56" cy="99.3" r="72" transform="rotate(-45 2904.848 99.872)"/><circle class="cls-286" cx="2908.98" cy="98.62" r="72" transform="rotate(-45 2903.272 99.205)"/><circle class="cls-287" cx="2907.39" cy="97.96" r="72" transform="rotate(-45 2901.684 98.533)"/><circle class="cls-288" cx="2905.79" cy="97.3" r="72" transform="rotate(-45 2900.078 97.868)"/><circle class="cls-289" cx="2904.17" cy="96.64" r="72" transform="rotate(-45 2898.468 97.215)"/><circle class="cls-290" cx="2902.55" cy="95.99" r="72" transform="rotate(-45 2896.84 96.57)"/><circle class="cls-291" cx="2900.91" cy="95.35" r="72" transform="rotate(-45 2895.208 95.936)"/><circle class="cls-292" cx="2899.26" cy="94.72" r="72" transform="rotate(-45 2893.551 95.292)"/><circle class="cls-293" cx="2897.6" cy="94.09" r="72" transform="rotate(-45 2891.902 94.665)"/><circle class="cls-294" cx="2895.93" cy="93.47" r="72" transform="rotate(-45 2890.223 94.04)"/><circle class="cls-295" cx="2894.24" cy="92.85" r="72" transform="rotate(-45 2888.54 93.428)"/><circle class="cls-296" cx="2892.55" cy="92.25" r="72" transform="rotate(-45 2886.838 92.822)"/><circle class="cls-297" cx="2890.84" cy="91.65" r="72" transform="rotate(-45 2885.132 92.229)"/><circle class="cls-298" cx="2889.12" cy="91.05" r="72" transform="rotate(-45 2883.415 91.63)"/><circle class="cls-299" cx="2887.39" cy="90.47" r="72" transform="rotate(-45 2881.675 91.051)"/><circle class="cls-300" cx="2885.64" cy="89.9" r="72" transform="rotate(-45 2879.935 90.472)"/><circle class="cls-301" cx="2883.89" cy="89.33" r="72" transform="rotate(-45 2878.19 89.905)"/><circle class="cls-302" cx="2882.12" cy="88.77" r="72" transform="rotate(-45 2876.41 89.352)"/><circle class="cls-303" cx="2880.35" cy="88.22" r="72" transform="rotate(-45 2874.644 88.804)"/><circle class="cls-304" cx="2878.56" cy="87.68" r="72" transform="rotate(-45 2872.847 88.258)"/><circle class="cls-305" cx="2876.76" cy="87.15" r="72" transform="rotate(-45 2871.046 87.724)"/><circle class="cls-306" cx="2874.94" cy="86.63" r="72" transform="rotate(-45 2869.24 87.202)"/><circle class="cls-307" cx="2873.12" cy="86.12" r="72" transform="rotate(-45 2867.412 86.7)"/><circle class="cls-308" cx="2871.29" cy="85.61" r="72" transform="rotate(-45 2865.584 86.196)"/><circle class="cls-309" cx="2869.44" cy="85.12" r="72" transform="rotate(-45 2863.738 85.7)"/><circle class="cls-310" cx="2867.58" cy="84.64" r="72" transform="rotate(-45 2861.876 85.212)"/><circle class="cls-311" cx="2865.71" cy="84.17" r="72" transform="rotate(-45 2860.004 84.748)"/><circle class="cls-312" cx="2863.83" cy="83.71" r="72" transform="rotate(-45 2858.131 84.283)"/><circle class="cls-313" cx="2861.94" cy="83.26" r="72" transform="rotate(-45 2856.237 83.838)"/><circle class="cls-314" cx="2860.04" cy="82.82" r="72" transform="rotate(-45 2854.337 83.405)"/><circle class="cls-315" cx="2858.13" cy="82.4" r="72" transform="rotate(-45 2852.42 82.979)"/><circle class="cls-316" cx="2856.2" cy="81.98" r="72" transform="rotate(-45 2850.5 82.565)"/><circle class="cls-317" cx="2854.27" cy="81.58" r="72" transform="rotate(-45 2848.56 82.158)"/><circle class="cls-318" cx="2852.32" cy="81.18" r="72" transform="rotate(-45 2846.617 81.763)"/><circle class="cls-319" cx="2850.36" cy="80.8" r="72" transform="rotate(-45 2844.657 81.375)"/><circle class="cls-320" cx="2848.4" cy="80.44" r="72" transform="rotate(-45 2842.686 81.011)"/><circle class="cls-321" cx="2846.42" cy="80.08" r="72" transform="rotate(-45 2840.71 80.66)"/><circle class="cls-322" cx="2844.43" cy="79.74" r="72" transform="rotate(-45 2838.717 80.315)"/><circle class="cls-323" cx="2842.43" cy="79.41" r="72" transform="rotate(-45 2836.72 79.982)"/><circle class="cls-324" cx="2840.42" cy="79.1" r="72" transform="rotate(-45 2834.712 79.674)"/><circle class="cls-325" cx="2838.39" cy="78.79" r="72" transform="rotate(-45 2832.687 79.373)"/><circle class="cls-326" cx="2836.36" cy="78.51" r="72" transform="rotate(-45 2830.657 79.083)"/><circle class="cls-327" cx="2834.32" cy="78.23" r="72" transform="rotate(-45 2828.61 78.801)"/><circle class="cls-328" cx="2832.26" cy="77.97" r="72" transform="rotate(-45 2826.554 78.543)"/><circle class="cls-329" cx="2830.2" cy="77.72" r="72" transform="rotate(-45 2824.492 78.297)"/><circle class="cls-330" cx="2828.13" cy="77.49" r="72" transform="rotate(-45 2822.425 78.063)"/><circle class="cls-331" cx="2826.04" cy="77.27" r="72" transform="rotate(-45 2820.336 77.849)"/><circle class="cls-332" cx="2823.94" cy="77.07" r="72" transform="rotate(-45 2818.242 77.646)"/><circle class="cls-333" cx="2821.84" cy="76.88" r="72" transform="rotate(-45 2816.126 77.462)"/><circle class="cls-334" cx="2819.72" cy="76.71" r="72" transform="rotate(-45 2814.022 77.284)"/><circle class="cls-335" cx="2817.59" cy="76.55" r="72" transform="rotate(-45 2811.891 77.137)"/><circle class="cls-336" cx="2815.46" cy="76.41" r="72" transform="rotate(-45 2809.748 76.984)"/><circle class="cls-337" cx="2813.31" cy="76.29" r="72" transform="rotate(-45 2807.607 76.861)"/><circle class="cls-338" cx="2811.15" cy="76.18" r="72" transform="rotate(-45 2805.444 76.757)"/><circle class="cls-339" cx="2808.98" cy="76.08" r="72" transform="rotate(-45 2803.276 76.665)"/><circle class="cls-340" cx="2806.8" cy="76.01" r="72" transform="rotate(-45 2801.103 76.585)"/><circle class="cls-341" cx="2804.62" cy="75.95" r="72" transform="rotate(-45 2798.908 76.525)"/><circle class="cls-342" cx="2802.42" cy="75.9" r="72" transform="rotate(-45 2796.707 76.476)"/><circle class="cls-343" cx="2800.21" cy="75.88" r="72" transform="rotate(-45 2794.51 76.456)"/><circle class="cls-344" cx="2797.99" cy="75.87" r="72" transform="rotate(-45 2792.282 76.439)"/><circle class="cls-345" cx="2791.29" cy="75.95" r="72" transform="rotate(-45 2785.587 76.522)"/><circle class="cls-346" cx="2784.68" cy="76.18" r="72" transform="rotate(-45 2778.967 76.764)"/><circle class="cls-347" cx="2778.16" cy="76.57" r="72" transform="rotate(-45 2772.457 77.15)"/><path class="cls-348" d="M2720.83 26.19a72 72 0 1 1 0 101.82 72 72 0 0 1 0-101.82z" transform="translate(-2.08 -3.87)"/><path class="cls-349" d="M2714.51 26.85a72 72 0 1 1 0 101.82 72 72 0 0 1 0-101.82z" transform="translate(-2.08 -3.87)"/><path class="cls-350" d="M2708.28 27.65a72 72 0 1 1 0 101.82 72 72 0 0 1 0-101.82z" transform="translate(-2.08 -3.87)"/><path class="cls-351" d="M2702.16 28.58a72 72 0 1 1 0 101.82 72 72 0 0 1 0-101.82z" transform="translate(-2.08 -3.87)"/><path class="cls-352" d="M2696.13 29.63a72 72 0 1 1 0 101.82 72 72 0 0 1 0-101.82z" transform="translate(-2.08 -3.87)"/><path class="cls-353" d="M2690.2 30.79a72 72 0 1 1 0 101.82 72 72 0 0 1 0-101.82z" transform="translate(-2.08 -3.87)"/><path class="cls-354" d="M2684.38 32.07a72 72 0 1 1 0 101.82 72 72 0 0 1 0-101.82z" transform="translate(-2.08 -3.87)"/><path class="cls-355" d="M2678.66 33.44a72 72 0 1 1 0 101.82 72 72 0 0 1 0-101.82z" transform="translate(-2.08 -3.87)"/><path class="cls-356" d="M2673 34.92a72 72 0 1 1 0 101.82 72 72 0 0 1 0-101.82z" transform="translate(-2.08 -3.87)"/><path class="cls-357" d="M2667.53 36.48a72 72 0 1 1 0 101.82 72 72 0 0 1 0-101.82z" transform="translate(-2.08 -3.87)"/><path class="cls-358" d="M2662.12 38.14a72 72 0 1 1 0 101.82 72 72 0 0 1 0-101.82z" transform="translate(-2.08 -3.87)"/><path class="cls-359" d="M2656.82 39.87a72 72 0 1 1 0 101.82 72 72 0 0 1 0-101.82z" transform="translate(-2.08 -3.87)"/><path class="cls-360" d="M2651.63 41.68a72 72 0 1 1 0 101.82 72 72 0 0 1 0-101.82z" transform="translate(-2.08 -3.87)"/><path class="cls-361" d="M2646.54 43.56a72 72 0 1 1 0 101.82 72 72 0 0 1 0-101.82z" transform="translate(-2.08 -3.87)"/><path class="cls-362" d="M2641.57 45.5a72 72 0 1 1 0 101.82 72 72 0 0 1 0-101.82z" transform="translate(-2.08 -3.87)"/><path class="cls-363" d="M2636.71 47.5a72 72 0 1 1 0 101.82 72 72 0 0 1 0-101.82z" transform="translate(-2.08 -3.87)"/><path class="cls-364" d="M2632 49.55a72 72 0 1 1 0 101.82 72 72 0 0 1 0-101.82z" transform="translate(-2.08 -3.87)"/><path class="cls-365" d="M2627.31 51.65a72 72 0 1 1 0 101.82 72 72 0 0 1 0-101.82z" transform="translate(-2.08 -3.87)"/><path class="cls-366" d="M2622.79 53.78a72 72 0 1 1 .05 101.82 72 72 0 0 1-.05-101.82z" transform="translate(-2.08 -3.87)"/><path class="cls-367" d="M2618.38 56a72 72 0 1 1 .05 101.82 72 72 0 0 1-.05-101.82z" transform="translate(-2.08 -3.87)"/><path class="cls-368" d="M2614.08 58.16a72 72 0 1 1 .06 101.82 72 72 0 0 1-.06-101.82z" transform="translate(-2.08 -3.87)"/><path class="cls-369" d="M2609.9 60.38a72 72 0 1 1 .1 101.82 72 72 0 0 1-.1-101.82z" transform="translate(-2.08 -3.87)"/><path class="cls-199" d="M2605.84 62.62a72 72 0 1 1 .06 101.82 72 72 0 0 1-.06-101.82z" transform="translate(-2.08 -3.87)"/><path class="cls-200" d="M2601.9 64.87a72 72 0 1 1 .1 101.83 72 72 0 0 1-.1-101.83z" transform="translate(-2.08 -3.87)"/><path class="cls-370" d="M2598.07 67.13a72 72 0 1 1 .07 101.82 72 72 0 0 1-.07-101.82z" transform="translate(-2.08 -3.87)"/><path class="cls-371" d="M2594.37 69.39a72 72 0 1 1 .07 101.82 72 72 0 0 1-.07-101.82z" transform="translate(-2.08 -3.87)"/><path class="cls-372" d="M2590.79 71.64a72 72 0 1 1 .07 101.82 72 72 0 0 1-.07-101.82z" transform="translate(-2.08 -3.87)"/><path class="cls-373" d="M2587.33 73.88a72 72 0 1 1 .07 101.82 72 72 0 0 1-.07-101.82z" transform="translate(-2.08 -3.87)"/><path class="cls-374" d="M2584 76.11a72 72 0 1 1 .08 101.82 72 72 0 0 1-.08-101.82z" transform="translate(-2.08 -3.87)"/><path class="cls-375" d="M2580.78 78.31a72 72 0 1 1 .08 101.82 72 72 0 0 1-.08-101.82z" transform="translate(-2.08 -3.87)"/><path class="cls-376" d="M2577.7 80.48a72 72 0 1 1 .08 101.82 72 72 0 0 1-.08-101.82z" transform="translate(-2.08 -3.87)"/><path class="cls-377" d="M2574.74 82.62a72 72 0 1 1 .08 101.82 72 72 0 0 1-.08-101.82z" transform="translate(-2.08 -3.87)"/><path class="cls-208" d="M2571.91 84.72a72 72 0 1 1 .08 101.82 72 72 0 0 1-.08-101.82z" transform="translate(-2.08 -3.87)"/><path class="cls-378" d="M2569.2 86.77a72 72 0 1 1 .09 101.82 72 72 0 0 1-.09-101.82z" transform="translate(-2.08 -3.87)"/><path class="cls-210" d="M2566.63 88.77a72 72 0 1 1 .09 101.82 72 72 0 0 1-.09-101.82z" transform="translate(-2.08 -3.87)"/><path class="cls-211" d="M2564.19 90.71a72 72 0 1 1 .09 101.82 72 72 0 0 1-.09-101.82z" transform="translate(-2.08 -3.87)"/><path class="cls-379" d="M2561.87 92.58a72 72 0 1 1 .09 101.82 72 72 0 0 1-.09-101.82z" transform="translate(-2.08 -3.87)"/><path class="cls-380" d="M2559.69 94.39a72 72 0 1 1 .1 101.82 72 72 0 0 1-.1-101.82z" transform="translate(-2.08 -3.87)"/><path class="cls-381" d="M2557.65 96.13a72 72 0 1 1 .1 101.82 72 72 0 0 1-.1-101.82z" transform="translate(-2.08 -3.87)"/><path class="cls-382" d="M2555.74 97.78a72 72 0 1 1 .1 101.82 72 72 0 0 1-.1-101.82z" transform="translate(-2.08 -3.87)"/><path class="cls-383" d="M2554 99.35a72 72 0 1 1 .1 101.82 72 72 0 0 1-.1-101.82z" transform="translate(-2.08 -3.87)"/><path class="cls-217" d="M2552.32 100.82a72 72 0 1 1 .11 101.82 72 72 0 0 1-.11-101.82z" transform="translate(-2.08 -3.87)"/><path class="cls-384" d="M2550.82 102.2a72 72 0 1 1 .11 101.82 72 72 0 0 1-.11-101.82z" transform="translate(-2.08 -3.87)"/><path class="cls-219" d="M2549.45 103.47a72 72 0 1 1 .11 101.82 72 72 0 0 1-.11-101.82z" transform="translate(-2.08 -3.87)"/><path class="cls-220" d="M2548.23 104.63a72 72 0 1 1 .11 101.82 72 72 0 0 1-.11-101.82z" transform="translate(-2.08 -3.87)"/><path class="cls-221" d="M2547.14 105.68a72 72 0 1 1 .12 101.82 72 72 0 0 1-.12-101.82z" transform="translate(-2.08 -3.87)"/><path class="cls-222" d="M2546.2 106.61a72 72 0 1 1 .12 101.82 72 72 0 0 1-.12-101.82z" transform="translate(-2.08 -3.87)"/><path class="cls-385" d="M2545.4 107.41a72 72 0 1 1 .12 101.82 72 72 0 0 1-.12-101.82z" transform="translate(-2.08 -3.87)"/><path class="cls-224" d="M2544.74 108.08a72 72 0 1 1 .12 101.82 72 72 0 0 1-.12-101.82z" transform="translate(-2.08 -3.87)"/><path class="cls-225" d="M2544.23 108.61a72 72 0 1 1 .12 101.82 72 72 0 0 1-.12-101.82z" transform="translate(-2.08 -3.87)"/><path class="cls-226" d="M2543.86 109a72 72 0 1 1 .13 101.82 72 72 0 0 1-.13-101.82z" transform="translate(-2.08 -3.87)"/><path class="cls-227" d="M2543.64 109.23a72 72 0 1 1 .13 101.82 72 72 0 0 1-.13-101.82z" transform="translate(-2.08 -3.87)"/><path class="cls-228" d="M2645.39 211.13a72 72 0 1 1 0-101.82 71.84 71.84 0 0 1 0 101.82z" transform="translate(-2.08 -3.87)"/><path class="cls-1" d="M2543.57 109.31a72 72 0 0 1 101.82 101.82A215.44 215.44 0 0 0 2582 363.87c0 119.29 96.71 216 216 216 99 0 152.74-63.26 152.74-63.26a72 72 0 1 1 101.82 101.82S2958.87 723.87 2798 723.87c-198.82 0-360-161.18-360-360a359 359 0 0 1 105.57-254.56zM1925 3.87a71.91 71.91 0 0 0-72 72v576a72 72 0 0 0 144 0v-576a71.91 71.91 0 0 0-72-72zM854 309.87a71.91 71.91 0 0 0-72 72v198a72 72 0 1 0 144 0v-198a71.91 71.91 0 0 0-72-72zM854 75.87a81 81 0 1 0 81 81 81.09 81.09 0 0 0-81-81zM2222 309.87a71.91 71.91 0 0 0-72 72v198a72 72 0 0 0 144 0v-198a71.91 71.91 0 0 0-72-72zM2222 75.87a81 81 0 1 0 81 81 81.09 81.09 0 0 0-81-81z" transform="translate(-2.08 -3.87)"/><circle class="cls-1" cx="565.72" cy="160.22" r="72" transform="rotate(-45 560.017 160.803)"/><circle class="cls-2" cx="565.65" cy="160.14" r="72" transform="rotate(-45 559.94 160.715)"/><circle class="cls-3" cx="565.43" cy="159.91" r="72" transform="rotate(-45 559.725 160.484)"/><circle class="cls-4" cx="565.06" cy="159.53" r="72" transform="rotate(-45 559.358 160.106)"/><circle class="cls-5" cx="564.55" cy="159" r="72" transform="rotate(-45 558.84 159.58)"/><circle class="cls-6" cx="563.9" cy="158.34" r="72" transform="rotate(-45 558.196 158.918)"/><circle class="cls-7" cx="563.11" cy="157.55" r="72" transform="rotate(-45 557.407 158.124)"/><circle class="cls-8" cx="562.17" cy="156.63" r="72" transform="rotate(-45 556.458 157.208)"/><circle class="cls-9" cx="561.1" cy="155.59" r="72" transform="rotate(-45 555.388 156.17)"/><circle class="cls-10" cx="559.88" cy="154.44" r="72" transform="rotate(-45 554.17 155.015)"/><circle class="cls-229" cx="558.53" cy="153.18" r="72" transform="rotate(-45 552.826 153.752)"/><circle class="cls-386" cx="557.04" cy="151.81" r="72" transform="rotate(-45 551.329 152.382)"/><circle class="cls-13" cx="555.41" cy="150.35" r="72" transform="rotate(-45 549.697 150.928)"/><circle class="cls-14" cx="553.65" cy="148.79" r="72" transform="rotate(-45 547.94 149.366)"/><circle class="cls-15" cx="551.75" cy="147.15" r="72" transform="rotate(-45 546.043 147.732)"/><circle class="cls-16" cx="549.72" cy="145.43" r="72" transform="rotate(-45 544.01 146.013)"/><circle class="cls-17" cx="547.56" cy="143.64" r="72" transform="rotate(-45 541.856 144.216)"/><circle class="cls-387" cx="545.26" cy="141.77" r="72" transform="rotate(-45 539.562 142.346)"/><circle class="cls-388" cx="542.84" cy="139.85" r="72" transform="rotate(-45 537.135 140.422)"/><circle class="cls-230" cx="540.28" cy="137.86" r="72" transform="rotate(-45 534.575 138.442)"/><circle class="cls-21" cx="537.6" cy="135.82" r="72" transform="rotate(-45 531.899 136.4)"/><circle class="cls-231" cx="534.79" cy="133.74" r="72" transform="rotate(-45 529.085 134.316)"/><circle class="cls-23" cx="531.86" cy="131.62" r="72" transform="rotate(-45 526.146 132.193)"/><circle class="cls-24" cx="528.8" cy="129.46" r="72" transform="rotate(-45 523.093 130.038)"/><circle class="cls-389" cx="525.61" cy="127.27" r="72" transform="rotate(-45 519.898 127.851)"/><circle class="cls-390" cx="522.3" cy="125.06" r="72" transform="rotate(-45 516.588 125.632)"/><circle class="cls-391" cx="518.87" cy="122.83" r="72" transform="rotate(-45 513.168 123.409)"/><circle class="cls-28" cx="515.31" cy="120.59" r="72" transform="rotate(-45 509.611 121.172)"/><circle class="cls-233" cx="511.64" cy="118.34" r="72" transform="rotate(-45 505.936 118.914)"/><circle class="cls-30" cx="507.85" cy="116.09" r="72" transform="rotate(-45 502.14 116.677)"/><circle class="cls-234" cx="503.93" cy="113.85" r="72" transform="rotate(-45 498.236 114.424)"/><circle class="cls-392" cx="499.91" cy="111.62" r="72" transform="rotate(-45 494.194 112.198)"/><circle class="cls-393" cx="495.76" cy="109.4" r="72" transform="rotate(-45 490.053 109.974)"/><circle class="cls-394" cx="491.5" cy="107.21" r="72" transform="rotate(-45 485.797 107.786)"/><circle class="cls-35" cx="487.12" cy="105.04" r="72" transform="rotate(-45 481.42 105.62)"/><circle class="cls-36" cx="482.63" cy="102.91" r="72" transform="rotate(-45 476.927 103.49)"/><circle class="cls-37" cx="478.03" cy="100.81" r="72" transform="rotate(-45 472.326 101.386)"/><circle class="cls-237" cx="473.31" cy="98.76" r="72" transform="rotate(-45 467.605 99.332)"/><circle class="cls-395" cx="468.49" cy="96.76" r="72" transform="rotate(-45 462.788 97.337)"/><circle class="cls-396" cx="463.55" cy="94.82" r="72" transform="rotate(-45 457.847 95.403)"/><circle class="cls-397" cx="458.51" cy="92.94" r="72" transform="rotate(-45 452.804 93.512)"/><circle class="cls-398" cx="453.36" cy="91.13" r="72" transform="rotate(-45 447.655 91.705)"/><circle class="cls-43" cx="448.1" cy="89.38" r="72" transform="rotate(-45 442.394 89.964)"/><circle class="cls-240" cx="442.74" cy="87.72" r="72" transform="rotate(-45 437.033 88.295)"/><circle class="cls-399" cx="437.27" cy="86.14" r="72" transform="rotate(-45 431.561 86.721)"/><circle class="cls-400" cx="431.7" cy="84.66" r="72" transform="rotate(-45 425.996 85.237)"/><circle class="cls-401" cx="426.02" cy="83.27" r="72" transform="rotate(-45 420.32 83.847)"/><circle class="cls-402" cx="420.25" cy="81.98" r="72" transform="rotate(-45 414.535 82.554)"/><circle class="cls-403" cx="414.37" cy="80.79" r="72" transform="rotate(-45 408.663 81.366)"/><circle class="cls-50" cx="408.39" cy="79.72" r="72" transform="rotate(-45 402.683 80.303)"/><circle class="cls-244" cx="402.32" cy="78.77" r="72" transform="rotate(-45 396.616 79.346)"/><circle class="cls-404" cx="396.14" cy="77.95" r="72" transform="rotate(-45 390.436 78.526)"/><circle class="cls-405" cx="389.87" cy="77.25" r="72" transform="rotate(-45 384.166 77.823)"/><circle class="cls-406" cx="383.51" cy="76.69" r="72" transform="rotate(-45 377.805 77.268)"/><circle class="cls-407" cx="377.05" cy="76.27" r="72" transform="rotate(-45 371.337 76.837)"/><circle class="cls-408" cx="370.49" cy="75.99" r="72" transform="rotate(-45 364.787 76.57)"/><circle class="cls-409" cx="363.84" cy="75.87" r="72" transform="rotate(-45 358.135 76.446)"/><circle class="cls-247" cx="359.07" cy="75.89" r="72" transform="rotate(-45 353.362 76.463)"/><circle class="cls-410" cx="355" cy="75.96" r="72" transform="rotate(-45 349.302 76.535)"/><circle class="cls-411" cx="350.94" cy="76.09" r="72" transform="rotate(-45 345.228 76.672)"/><circle class="cls-412" cx="346.89" cy="76.28" r="72" transform="rotate(-45 341.189 76.865)"/><circle class="cls-413" cx="342.85" cy="76.53" r="72" transform="rotate(-45 337.14 77.112)"/><circle class="cls-414" cx="338.82" cy="76.84" r="72" transform="rotate(-45 333.11 77.422)"/><circle class="cls-415" cx="334.8" cy="77.21" r="72" transform="rotate(-45 329.099 77.783)"/><circle class="cls-251" cx="330.8" cy="77.63" r="72" transform="rotate(-45 325.092 78.202)"/><circle class="cls-416" cx="326.8" cy="78.11" r="72" transform="rotate(-45 321.09 78.68)"/><circle class="cls-417" cx="322.82" cy="78.64" r="72" transform="rotate(-45 317.117 79.226)"/><circle class="cls-418" cx="318.85" cy="79.24" r="72" transform="rotate(-45 313.14 79.813)"/><circle class="cls-419" cx="314.9" cy="79.88" r="72" transform="rotate(-45 309.196 80.457)"/><circle class="cls-420" cx="310.96" cy="80.59" r="72" transform="rotate(-45 305.257 81.158)"/><circle class="cls-421" cx="307.03" cy="81.34" r="72" transform="rotate(-45 301.334 81.923)"/><circle class="cls-422" cx="303.13" cy="82.16" r="72" transform="rotate(-45 297.42 82.735)"/><circle class="cls-423" cx="299.23" cy="83.02" r="72" transform="rotate(-45 293.527 83.597)"/><circle class="cls-424" cx="295.35" cy="83.94" r="72" transform="rotate(-45 289.65 84.523)"/><circle class="cls-425" cx="291.49" cy="84.92" r="72" transform="rotate(-45 285.783 85.495)"/><circle class="cls-426" cx="287.65" cy="85.94" r="72" transform="rotate(-45 281.949 86.523)"/><circle class="cls-427" cx="283.83" cy="87.02" r="72" transform="rotate(-45 278.124 87.597)"/><circle class="cls-428" cx="280.02" cy="88.15" r="72" transform="rotate(-45 274.315 88.735)"/><circle class="cls-429" cx="276.23" cy="89.34" r="72" transform="rotate(-45 270.52 89.907)"/><circle class="cls-430" cx="272.46" cy="90.57" r="72" transform="rotate(-45 266.754 91.147)"/><circle class="cls-431" cx="268.71" cy="91.86" r="72" transform="rotate(-45 263.01 92.438)"/><circle class="cls-432" cx="264.98" cy="93.2" r="72" transform="rotate(-45 259.273 93.776)"/><circle class="cls-433" cx="261.27" cy="94.58" r="72" transform="rotate(-45 255.563 95.152)"/><circle class="cls-434" cx="257.59" cy="96.02" r="72" transform="rotate(-45 251.882 96.597)"/><circle class="cls-435" cx="253.92" cy="97.51" r="72" transform="rotate(-45 248.21 98.088)"/><circle class="cls-436" cx="250.28" cy="99.04" r="72" transform="rotate(-45 244.575 99.624)"/><circle class="cls-437" cx="246.66" cy="100.63" r="72" transform="rotate(-45 240.95 101.205)"/><circle class="cls-438" cx="243.06" cy="102.26" r="72" transform="rotate(-45 237.347 102.838)"/><circle class="cls-439" cx="239.49" cy="103.94" r="72" transform="rotate(-45 233.781 104.515)"/><circle class="cls-440" cx="235.94" cy="105.67" r="72" transform="rotate(-45 230.232 106.255)"/><circle class="cls-441" cx="232.41" cy="107.45" r="72" transform="rotate(-45 226.71 108.034)"/><circle class="cls-442" cx="228.91" cy="109.27" r="72" transform="rotate(-45 223.2 109.847)"/><circle class="cls-443" cx="225.44" cy="111.14" r="72" transform="rotate(-45 219.737 111.722)"/><circle class="cls-444" cx="221.99" cy="113.06" r="72" transform="rotate(-45 216.287 113.63)"/><circle class="cls-445" cx="218.57" cy="115.02" r="72" transform="rotate(-45 212.871 115.596)"/><circle class="cls-446" cx="215.18" cy="117.03" r="72" transform="rotate(-45 209.464 117.607)"/><circle class="cls-447" cx="211.81" cy="119.08" r="72" transform="rotate(-45 206.096 119.662)"/><circle class="cls-448" cx="208.47" cy="121.18" r="72" transform="rotate(-45 202.765 121.762)"/><circle class="cls-449" cx="205.16" cy="123.32" r="72" transform="rotate(-45 199.461 123.9)"/><circle class="cls-450" cx="201.88" cy="125.51" r="72" transform="rotate(-45 196.178 126.09)"/><circle class="cls-451" cx="198.63" cy="127.74" r="72" transform="rotate(-45 192.927 128.307)"/><circle class="cls-452" cx="195.41" cy="130.01" r="72" transform="rotate(-45 189.708 130.58)"/><circle class="cls-453" cx="192.22" cy="132.32" r="72" transform="rotate(-45 186.51 132.905)"/><circle class="cls-454" cx="189.06" cy="134.68" r="72" transform="rotate(-45 183.357 135.261)"/><circle class="cls-455" cx="185.93" cy="137.08" r="72" transform="rotate(-45 180.23 137.657)"/><circle class="cls-456" cx="182.84" cy="139.52" r="72" transform="rotate(-45 177.14 140.096)"/><circle class="cls-457" cx="179.78" cy="142" r="72" transform="rotate(-45 174.072 142.587)"/><circle class="cls-458" cx="176.75" cy="144.53" r="72" transform="rotate(-45 171.035 145.105)"/><circle class="cls-459" cx="173.75" cy="147.09" r="72" transform="rotate(-45 168.048 147.672)"/><circle class="cls-460" cx="170.79" cy="149.69" r="72" transform="rotate(-45 165.087 150.279)"/><circle class="cls-461" cx="167.86" cy="152.34" r="72" transform="rotate(-45 162.158 152.912)"/><circle class="cls-462" cx="164.97" cy="155.02" r="72" transform="rotate(-45 159.262 155.601)"/><circle class="cls-463" cx="162.11" cy="157.74" r="72" transform="rotate(-45 156.41 158.323)"/><circle class="cls-464" cx="159.29" cy="160.5" r="72" transform="rotate(-45 153.583 161.084)"/><circle class="cls-465" cx="156.51" cy="163.3" r="72" transform="rotate(-45 150.8 163.877)"/><circle class="cls-466" cx="153.76" cy="166.14" r="72" transform="rotate(-45 148.055 166.714)"/><circle class="cls-467" cx="151.05" cy="169.01" r="72" transform="rotate(-45 145.348 169.595)"/><circle class="cls-468" cx="148.38" cy="171.93" r="72" transform="rotate(-45 142.673 172.503)"/><circle class="cls-469" cx="145.75" cy="174.87" r="72" transform="rotate(-45 140.04 175.443)"/><circle class="cls-470" cx="143.15" cy="177.86" r="72" transform="rotate(-45 137.447 178.428)"/><circle class="cls-471" cx="140.6" cy="180.88" r="72" transform="rotate(-45 134.892 181.456)"/><circle class="cls-472" cx="138.08" cy="183.93" r="72" transform="rotate(-45 132.38 184.517)"/><circle class="cls-473" cx="135.61" cy="187.02" r="72" transform="rotate(-45 129.898 187.604)"/><circle class="cls-474" cx="133.18" cy="190.15" r="72" transform="rotate(-45 127.473 190.73)"/><circle class="cls-475" cx="130.79" cy="193.31" r="72" transform="rotate(-45 125.078 193.88)"/><circle class="cls-476" cx="128.44" cy="196.51" r="72" transform="rotate(-45 122.734 197.082)"/><circle class="cls-477" cx="126.13" cy="199.73" r="72" transform="rotate(-45 120.421 200.31)"/><circle class="cls-478" cx="123.86" cy="202.99" r="72" transform="rotate(-45 118.151 203.57)"/><circle class="cls-479" cx="121.64" cy="206.29" r="72" transform="rotate(-45 115.937 206.867)"/><circle class="cls-480" cx="119.47" cy="209.62" r="72" transform="rotate(-45 113.754 210.191)"/><circle class="cls-481" cx="117.33" cy="212.97" r="72" transform="rotate(-45 111.626 213.553)"/><circle class="cls-482" cx="115.25" cy="216.37" r="72" transform="rotate(-45 109.542 216.946)"/><circle class="cls-483" cx="113.2" cy="219.79" r="72" transform="rotate(-45 107.5 220.372)"/><circle class="cls-484" cx="111.21" cy="223.24" r="72" transform="rotate(-45 105.508 223.817)"/><circle class="cls-485" cx="109.26" cy="226.72" r="72" transform="rotate(-45 103.554 227.307)"/><circle class="cls-486" cx="107.35" cy="230.24" r="72" transform="rotate(-45 101.647 230.816)"/><circle class="cls-487" cx="105.5" cy="233.78" r="72" transform="rotate(-45 99.796 234.363)"/><circle class="cls-488" cx="103.69" cy="237.36" r="72" transform="rotate(-45 97.982 237.925)"/><circle class="cls-489" cx="101.93" cy="240.96" r="72" transform="rotate(-45 96.23 241.54)"/><circle class="cls-490" cx="100.22" cy="244.59" r="72" transform="rotate(-45 94.513 245.171)"/><circle class="cls-491" cx="98.56" cy="248.25" r="72" transform="rotate(-45 92.858 248.827)"/><circle class="cls-492" cx="96.95" cy="251.94" r="72" transform="rotate(-45 91.245 252.515)"/><circle class="cls-493" cx="95.39" cy="255.65" r="72" transform="rotate(-45 89.681 256.223)"/><circle class="cls-494" cx="93.88" cy="259.39" r="72" transform="rotate(-45 88.172 259.968)"/><circle class="cls-495" cx="92.42" cy="263.16" r="72" transform="rotate(-45 86.707 263.745)"/><circle class="cls-496" cx="91.01" cy="266.96" r="72" transform="rotate(-45 85.307 267.535)"/><circle class="cls-497" cx="89.66" cy="270.78" r="72" transform="rotate(-45 83.95 271.357)"/><circle class="cls-498" cx="88.36" cy="274.63" r="72" transform="rotate(-45 82.653 275.204)"/><circle class="cls-499" cx="87.11" cy="278.5" r="72" transform="rotate(-45 81.4 279.083)"/><circle class="cls-500" cx="85.91" cy="282.4" r="72" transform="rotate(-45 80.212 282.975)"/><circle class="cls-501" cx="84.77" cy="286.32" r="72" transform="rotate(-45 79.068 286.9)"/><circle class="cls-502" cx="83.69" cy="290.27" r="72" transform="rotate(-45 77.983 290.848)"/><circle class="cls-503" cx="82.66" cy="294.24" r="72" transform="rotate(-45 76.947 294.817)"/><circle class="cls-504" cx="81.68" cy="298.23" r="72" transform="rotate(-45 75.972 298.811)"/><circle class="cls-505" cx="80.76" cy="302.25" r="72" transform="rotate(-45 75.057 302.83)"/><circle class="cls-506" cx="79.9" cy="306.29" r="72" transform="rotate(-45 74.19 306.87)"/><circle class="cls-507" cx="79.1" cy="310.35" r="72" transform="rotate(-45 73.388 310.922)"/><circle class="cls-508" cx="78.35" cy="314.43" r="72" transform="rotate(-45 72.642 315.01)"/><circle class="cls-509" cx="77.66" cy="318.54" r="72" transform="rotate(-45 71.96 319.113)"/><circle class="cls-510" cx="77.03" cy="322.67" r="72" transform="rotate(-45 71.323 323.247)"/><circle class="cls-511" cx="76.46" cy="326.81" r="72" transform="rotate(-45 70.751 327.394)"/><circle class="cls-512" cx="75.95" cy="330.98" r="72" transform="rotate(-45 70.244 331.554)"/><circle class="cls-513" cx="75.5" cy="335.17" r="72" transform="rotate(-45 69.793 335.751)"/><circle class="cls-514" cx="75.11" cy="339.38" r="72" transform="rotate(-45 69.411 339.949)"/><circle class="cls-515" cx="74.78" cy="343.6" r="72" transform="rotate(-45 69.074 344.179)"/><circle class="cls-516" cx="74.52" cy="347.85" r="72" transform="rotate(-45 68.813 348.427)"/><circle class="cls-517" cx="74.31" cy="352.11" r="72" transform="rotate(-45 68.606 352.683)"/><circle class="cls-518" cx="74.17" cy="356.39" r="72" transform="rotate(-45 68.471 356.968)"/><circle class="cls-519" cx="74.09" cy="360.69" r="72" transform="rotate(-45 68.385 361.274)"/><circle class="cls-172" cx="74.08" cy="365.64" r="72" transform="rotate(-45 68.373 366.219)"/><circle class="cls-173" cx="74.2" cy="372.29" r="72" transform="rotate(-45 68.493 372.86)"/><circle class="cls-520" cx="74.47" cy="378.84" r="72" transform="rotate(-45 68.76 379.419)"/><circle class="cls-521" cx="74.89" cy="385.3" r="72" transform="rotate(-45 69.184 385.873)"/><circle class="cls-522" cx="75.45" cy="391.67" r="72" transform="rotate(-45 69.742 392.242)"/><circle class="cls-523" cx="76.15" cy="397.94" r="72" transform="rotate(-45 70.44 398.513)"/><circle class="cls-524" cx="76.98" cy="404.11" r="72" transform="rotate(-45 71.277 404.686)"/><circle class="cls-525" cx="77.93" cy="410.19" r="72" transform="rotate(-45 72.224 410.764)"/><circle class="cls-180" cx="79" cy="416.17" r="72" transform="rotate(-45 73.299 416.739)"/><circle class="cls-181" cx="80.18" cy="422.04" r="72" transform="rotate(-45 74.472 422.613)"/><circle class="cls-526" cx="81.47" cy="427.82" r="72" transform="rotate(-45 75.767 428.396)"/><circle class="cls-527" cx="82.86" cy="433.49" r="72" transform="rotate(-45 77.15 434.074)"/><circle class="cls-528" cx="84.35" cy="439.07" r="72" transform="rotate(-45 78.646 439.644)"/><circle class="cls-529" cx="85.93" cy="444.53" r="72" transform="rotate(-45 80.213 445.115)"/><circle class="cls-530" cx="87.59" cy="449.9" r="72" transform="rotate(-45 81.882 450.473)"/><circle class="cls-187" cx="89.33" cy="455.16" r="72" transform="rotate(-45 83.62 455.733)"/><circle class="cls-188" cx="91.14" cy="460.31" r="72" transform="rotate(-45 85.434 460.882)"/><circle class="cls-189" cx="93.03" cy="465.35" r="72" transform="rotate(-45 87.32 465.92)"/><circle class="cls-190" cx="94.97" cy="470.28" r="72" transform="rotate(-45 89.265 470.855)"/><circle class="cls-531" cx="96.97" cy="475.11" r="72" transform="rotate(-45 91.266 475.686)"/><circle class="cls-532" cx="99.02" cy="479.82" r="72" transform="rotate(-45 93.317 480.397)"/><circle class="cls-533" cx="101.11" cy="484.43" r="72" transform="rotate(-45 95.408 485.01)"/><circle class="cls-534" cx="103.25" cy="488.92" r="72" transform="rotate(-45 97.537 489.499)"/><circle class="cls-195" cx="105.41" cy="493.29" r="72" transform="rotate(-45 99.699 493.873)"/><circle class="cls-196" cx="107.61" cy="497.55" r="72" transform="rotate(-45 101.894 498.134)"/><circle class="cls-197" cx="109.82" cy="501.7" r="72" transform="rotate(-45 104.122 502.281)"/><circle class="cls-198" cx="112.06" cy="505.73" r="72" transform="rotate(-45 106.346 506.3)"/><circle class="cls-535" cx="114.3" cy="509.64" r="72" transform="rotate(-45 108.599 510.217)"/><circle class="cls-536" cx="116.55" cy="513.44" r="72" transform="rotate(-45 110.843 514.017)"/><circle class="cls-537" cx="118.79" cy="517.11" r="72" transform="rotate(-45 113.084 517.69)"/><circle class="cls-202" cx="121.04" cy="520.66" r="72" transform="rotate(-45 115.334 521.237)"/><circle class="cls-203" cx="123.26" cy="524.1" r="72" transform="rotate(-45 117.558 524.676)"/><circle class="cls-204" cx="125.48" cy="527.4" r="72" transform="rotate(-45 119.767 527.98)"/><circle class="cls-205" cx="127.66" cy="530.59" r="72" transform="rotate(-45 121.955 531.164)"/><circle class="cls-206" cx="129.82" cy="533.65" r="72" transform="rotate(-45 124.112 534.221)"/><circle class="cls-207" cx="131.95" cy="536.59" r="72" transform="rotate(-45 126.243 537.169)"/><circle class="cls-538" cx="134.03" cy="539.4" r="72" transform="rotate(-45 128.322 539.967)"/><circle class="cls-539" cx="136.07" cy="542.08" r="72" transform="rotate(-45 130.364 542.652)"/><circle class="cls-210" cx="138.05" cy="544.63" r="72" transform="rotate(-45 132.344 545.211)"/><circle class="cls-211" cx="139.98" cy="547.06" r="72" transform="rotate(-45 134.268 547.635)"/><circle class="cls-212" cx="141.84" cy="549.35" r="72" transform="rotate(-45 136.135 549.921)"/><circle class="cls-213" cx="143.64" cy="551.51" r="72" transform="rotate(-45 137.935 552.095)"/><circle class="cls-214" cx="145.36" cy="553.54" r="72" transform="rotate(-45 139.655 554.123)"/><circle class="cls-215" cx="147" cy="555.44" r="72" transform="rotate(-45 141.29 556.016)"/><circle class="cls-540" cx="148.55" cy="557.2" r="72" transform="rotate(-45 142.85 557.78)"/><circle class="cls-217" cx="150.01" cy="558.83" r="72" transform="rotate(-45 144.313 559.404)"/><circle class="cls-218" cx="151.38" cy="560.32" r="72" transform="rotate(-45 145.673 560.9)"/><circle class="cls-219" cx="152.64" cy="561.68" r="72" transform="rotate(-45 146.935 562.258)"/><circle class="cls-220" cx="153.8" cy="562.89" r="72" transform="rotate(-45 148.087 563.47)"/><circle class="cls-221" cx="154.83" cy="563.97" r="72" transform="rotate(-45 149.13 564.539)"/><circle class="cls-222" cx="155.75" cy="564.9" r="72" transform="rotate(-45 150.04 565.481)"/><circle class="cls-223" cx="156.55" cy="565.7" r="72" transform="rotate(-45 150.84 566.28)"/><circle class="cls-541" cx="157.21" cy="566.35" r="72" transform="rotate(-45 151.507 566.924)"/><circle class="cls-225" cx="157.73" cy="566.86" r="72" transform="rotate(-45 152.03 567.437)"/><circle class="cls-226" cx="158.11" cy="567.22" r="72" transform="rotate(-45 152.402 567.803)"/><circle class="cls-227" cx="158.35" cy="567.44" r="72" transform="rotate(-45 152.64 568.015)"/><circle class="cls-228" cx="158.43" cy="567.52" r="72" transform="rotate(-45 152.721 568.09)"/><path class="cls-1" d="M616.63 516.6a72 72 0 0 0-101.82 0s-53.73 63.26-152.73 63.26c-97.09 0-152.73-63.26-152.73-63.26a72 72 0 0 0-101.83 101.83s93.68 105.44 254.56 105.44 254.55-105.44 254.55-105.44a72 72 0 0 0 0-101.83z" transform="translate(-2.08 -3.87)"/></svg>